<svg width="24" height="24" viewBox="0 0 24 24" fill="none" xmlns="http://www.w3.org/2000/svg">
<defs>
<linearGradient id="paint0_linear_3_972" x1="9.45353" y1="4.74958" x2="15.7482" y2="20.9504" gradientUnits="userSpaceOnUse">
<stop stop-color="#00BCC8"/>
<stop offset="1" stop-color="#2787BD"/>
</linearGradient>
</defs>
<mask id="mask0_3_972" style="mask-type:alpha" maskUnits="userSpaceOnUse" x="0" y="0" width="24" height="24">
<rect width="24" height="24" rx="11.5" fill="#C4C4C4"/>
</mask>
<g mask="url(#mask0_3_972)">
<path fill-rule="evenodd" clip-rule="evenodd" d="M5.82843 5.72473C5.67627 5.7474 5.52088 5.71827 5.38727 5.64201C5.2557 5.57165 5.1511 5.45972 5.08979 5.3237C5.02847 5.18768 5.01387 5.0352 5.04828 4.89001C5.08424 4.75506 5.15295 4.63107 5.24829 4.52902C5.69529 4.05302 6.15229 3.591 6.61029 3.129C6.92207 2.80632 7.33152 2.59546 7.77527 2.52902C7.80319 2.52214 7.83032 2.5124 7.85627 2.5H8.3833C8.76977 2.56804 9.13271 2.73283 9.4383 2.979C9.61313 3.13772 9.78015 3.30489 9.94672 3.47159L9.94672 3.4716L9.94673 3.47161C9.9869 3.51181 10.027 3.55199 10.0673 3.59201C10.3673 3.89334 10.6673 4.19634 10.9673 4.50101C11.0388 4.56417 11.0967 4.64117 11.1376 4.72736C11.1786 4.81354 11.2016 4.90714 11.2053 5.00247C11.2091 5.0978 11.1935 5.19289 11.1594 5.28201C11.1254 5.37114 11.0736 5.45244 11.0073 5.52101C10.9398 5.5907 10.8587 5.64562 10.7689 5.6823C10.6792 5.71897 10.5828 5.73661 10.4858 5.73407C10.3889 5.73153 10.2936 5.70888 10.2059 5.66756C10.1182 5.62623 10.0399 5.56714 9.97626 5.49402C9.68312 5.20288 9.39132 4.90951 9.09966 4.61629C8.95354 4.46939 8.80745 4.32252 8.66126 4.17599C8.59518 4.09067 8.51047 4.02161 8.41358 3.97409C8.31668 3.92657 8.21022 3.90186 8.1023 3.90186C7.99438 3.90186 7.88785 3.92657 7.79096 3.97409C7.69406 4.02161 7.60935 4.09067 7.54328 4.17599L7.28014 4.44538L7.28012 4.4454L7.28005 4.44547L7.28 4.44553L7.27998 4.44554C6.93015 4.80385 6.58044 5.16204 6.22626 5.51701C6.12068 5.62891 5.98059 5.70206 5.82843 5.72473ZM16.3163 4.248C17.3015 4.20122 18.2743 4.48259 19.0823 5.048C19.3883 5.24925 19.6335 5.53028 19.7914 5.86073C19.9493 6.19118 20.014 6.5585 19.9783 6.923C19.9194 7.42305 19.6732 7.8822 19.2893 8.208C18.7103 8.7196 17.9866 9.03864 17.2183 9.121C16.2172 9.29495 15.1867 9.12618 14.2933 8.642C13.9734 8.45994 13.6855 8.22649 13.4413 7.951C13.135 7.61256 12.9646 7.17287 12.9627 6.71641C12.9609 6.25995 13.1278 5.8189 13.4313 5.47799C13.9486 4.88633 14.6558 4.49317 15.4313 4.36599C15.6831 4.31373 15.9408 4.28748 16.1351 4.26769C16.2047 4.26059 16.2662 4.25433 16.3163 4.248ZM17.2313 7.688C17.6625 7.623 18.0638 7.42878 18.3823 7.13099H18.3813C18.4456 7.08281 18.4977 7.02035 18.5337 6.94854C18.5696 6.87674 18.5884 6.79756 18.5885 6.71725C18.5886 6.63695 18.57 6.55771 18.5342 6.48582C18.4984 6.41393 18.4465 6.35135 18.3823 6.30301C18.2408 6.16392 18.0768 6.04964 17.8973 5.96499C17.4667 5.76399 16.9982 5.65701 16.523 5.65115C16.0478 5.64529 15.5768 5.74068 15.1413 5.931C14.9382 6.01959 14.7516 6.14199 14.5893 6.293C14.5227 6.34044 14.4682 6.40302 14.4305 6.4756C14.3927 6.54817 14.3728 6.62866 14.3722 6.71046C14.3716 6.79226 14.3904 6.87304 14.4271 6.94615C14.4638 7.01926 14.5174 7.0826 14.5833 7.13099C14.6839 7.22863 14.7961 7.3136 14.9173 7.384C15.4321 7.65848 16.0103 7.79231 16.5933 7.772C16.6289 7.76762 16.6721 7.76325 16.721 7.75831L16.7211 7.7583L16.7212 7.75829L16.7213 7.75828L16.7213 7.75828C16.8623 7.74403 17.0496 7.7251 17.2313 7.688ZM10.6443 10.74C9.83561 10.1744 8.86209 9.89303 7.87631 9.94003C7.82625 9.94639 7.76475 9.95267 7.69502 9.9598L7.69501 9.9598C7.50152 9.97958 7.24472 10.0058 6.99332 10.058C6.21748 10.1857 5.51032 10.5796 4.99332 11.172C4.69693 11.5144 4.53378 11.9522 4.53378 12.405C4.53378 12.8579 4.69693 13.2956 4.99332 13.638C5.30258 14.008 5.6968 14.2976 6.14231 14.482C7.04211 14.8673 8.03771 14.9702 8.99729 14.777C9.7018 14.6695 10.3589 14.3564 10.8863 13.877C11.2514 13.5569 11.4862 13.1139 11.5463 12.632C11.5845 12.2642 11.5206 11.893 11.3614 11.5591C11.2023 11.2253 10.9542 10.9419 10.6443 10.74ZM9.99631 12.759C9.83141 12.9322 9.63531 13.0726 9.41831 13.173C8.95615 13.3833 8.45182 13.4846 7.94431 13.469C7.43679 13.4534 6.93967 13.3213 6.4913 13.083C6.34266 13.0017 6.20903 12.8955 6.09628 12.769C6.04633 12.7228 6.00648 12.6667 5.97922 12.6043C5.95196 12.5419 5.9379 12.4746 5.9379 12.4065C5.9379 12.3385 5.95196 12.2711 5.97922 12.2087C6.00648 12.1463 6.04633 12.0903 6.09628 12.044C6.29947 11.8234 6.55555 11.6582 6.8403 11.564C7.23789 11.4194 7.65829 11.3476 8.08133 11.352C8.62109 11.3445 9.15327 11.4793 9.6243 11.743C9.7645 11.8273 9.89154 11.9318 10.0013 12.053C10.0512 12.0974 10.0911 12.1519 10.1183 12.213C10.1455 12.274 10.1594 12.3401 10.159 12.4069C10.1587 12.4737 10.144 12.5397 10.1161 12.6004C10.0882 12.6611 10.0477 12.7152 9.99729 12.759H9.99631ZM16.4468 10.5765C17.2907 10.5765 18.1169 10.3344 18.8273 9.87902C18.9026 9.82076 18.989 9.77848 19.0812 9.75477C19.1734 9.73106 19.2695 9.72641 19.3636 9.74111C19.4577 9.7558 19.5478 9.78954 19.6284 9.84024C19.7089 9.89095 19.7783 9.95757 19.8323 10.036C19.8862 10.1149 19.9236 10.2038 19.9422 10.2975C19.9608 10.3912 19.9602 10.4876 19.9405 10.5811C19.9208 10.6746 19.8823 10.7631 19.8275 10.8412C19.7726 10.9194 19.7025 10.9857 19.6213 11.036C18.6766 11.6718 17.5599 12.003 16.4213 11.985C15.3032 11.9955 14.2081 11.6671 13.2803 11.043C13.197 10.9937 13.1247 10.9278 13.068 10.8494C13.0112 10.7711 12.9711 10.6819 12.9502 10.5874C12.9293 10.4929 12.928 10.3951 12.9464 10.3001C12.9649 10.2051 13.0026 10.1149 13.0573 10.035C13.1113 9.95605 13.181 9.88901 13.262 9.83802C13.3429 9.78703 13.4335 9.75319 13.528 9.73857C13.6226 9.72395 13.7191 9.72887 13.8117 9.75302C13.9043 9.77718 13.9909 9.82006 14.0663 9.87902C14.7768 10.3344 15.6029 10.5765 16.4468 10.5765ZM4.8473 16.742C5.77439 17.3651 6.86831 17.6932 7.9853 17.683C9.11372 17.7005 10.2211 17.3767 11.1623 16.754C11.2478 16.7052 11.3223 16.6393 11.3811 16.5604C11.4399 16.4814 11.4817 16.3912 11.504 16.2953C11.5262 16.1994 11.5284 16.1 11.5104 16.0032C11.4924 15.9065 11.4546 15.8145 11.3993 15.733C11.3439 15.6534 11.2728 15.5861 11.1903 15.5353C11.1077 15.4844 11.0155 15.4511 10.9196 15.4374C10.8236 15.4237 10.7259 15.4299 10.6324 15.4556C10.5389 15.4814 10.4517 15.5261 10.3763 15.587C9.66875 16.0353 8.84841 16.2733 8.01082 16.2733C7.17322 16.2733 6.35289 16.0353 5.64534 15.587C5.56972 15.5263 5.48245 15.4819 5.38893 15.4564C5.2954 15.4309 5.19764 15.4249 5.1017 15.4388C5.00576 15.4526 4.91365 15.4861 4.83119 15.5371C4.74873 15.588 4.67765 15.6554 4.62233 15.735C4.56801 15.815 4.53063 15.9052 4.51253 16.0002C4.49442 16.0952 4.49596 16.1928 4.51704 16.2872C4.53812 16.3815 4.57834 16.4705 4.63515 16.5488C4.69195 16.627 4.76412 16.6928 4.8473 16.742ZM16.4448 16.289C17.2937 16.289 18.1237 16.0389 18.8313 15.57C18.9087 15.5142 18.9965 15.4745 19.0895 15.4531C19.1825 15.4318 19.2789 15.4292 19.3729 15.4456C19.4669 15.462 19.5567 15.497 19.6369 15.5486C19.7172 15.6002 19.7864 15.6673 19.8403 15.746C19.8935 15.8238 19.9304 15.9116 19.9488 16.004C19.9673 16.0964 19.9669 16.1916 19.9477 16.2839C19.9284 16.3761 19.8907 16.4635 19.8369 16.5409C19.7831 16.6182 19.7141 16.6839 19.6343 16.734C18.8843 17.2519 18.0131 17.5671 17.1053 17.649C16.9442 17.6656 16.7832 17.6744 16.6481 17.6818L16.648 17.6818C16.5961 17.6846 16.5481 17.6872 16.5053 17.69C15.3568 17.711 14.2294 17.3802 13.2743 16.742C13.1914 16.6934 13.1194 16.6282 13.0628 16.5505C13.0061 16.4728 12.9661 16.3843 12.9452 16.2905C12.9243 16.1967 12.9229 16.0996 12.9412 16.0052C12.9594 15.9108 12.9969 15.8212 13.0513 15.742C13.1055 15.6638 13.1747 15.5972 13.255 15.5461C13.3352 15.495 13.4249 15.4604 13.5187 15.4444C13.6125 15.4284 13.7085 15.4312 13.8011 15.4528C13.8938 15.4744 13.9812 15.5142 14.0583 15.57C14.7659 16.0389 15.596 16.289 16.4448 16.289ZM10.3753 18.399C9.66782 18.8474 8.84747 19.0855 8.00985 19.0855C7.17223 19.0855 6.35181 18.8474 5.64431 18.399C5.56857 18.3385 5.4812 18.2941 5.38759 18.2688C5.29399 18.2434 5.19619 18.2376 5.10024 18.2517C5.00429 18.2657 4.91224 18.2994 4.82986 18.3506C4.74747 18.4017 4.67652 18.4693 4.62136 18.549C4.56728 18.6292 4.5301 18.7195 4.51223 18.8145C4.49435 18.9095 4.49609 19.0072 4.51736 19.1015C4.53862 19.1959 4.57897 19.2848 4.63589 19.363C4.6928 19.4411 4.76511 19.5068 4.84835 19.556C5.77588 20.1789 6.87012 20.5065 7.98733 20.496C9.11551 20.5131 10.2225 20.1889 11.1634 19.566C11.2489 19.5173 11.3233 19.4513 11.3821 19.3723C11.4409 19.2934 11.4827 19.2031 11.5049 19.1072C11.5271 19.0113 11.5291 18.9118 11.5109 18.8151C11.4928 18.7183 11.4548 18.6264 11.3993 18.545C11.3439 18.4653 11.2727 18.3978 11.1901 18.3469C11.1075 18.2959 11.0152 18.2626 10.9191 18.2489C10.8231 18.2352 10.7252 18.2414 10.6316 18.2673C10.538 18.2931 10.4508 18.3379 10.3753 18.399ZM16.4505 19.086C17.2944 19.0851 18.1204 18.8422 18.8303 18.386C18.906 18.3275 18.9928 18.2851 19.0855 18.2614C19.1782 18.2377 19.2747 18.2333 19.3692 18.2484C19.4636 18.2634 19.554 18.2977 19.6347 18.3491C19.7154 18.4005 19.7847 18.4678 19.8383 18.547C19.892 18.6262 19.929 18.7155 19.9472 18.8094C19.9653 18.9034 19.9642 19 19.9439 19.0935C19.9236 19.187 19.8846 19.2754 19.8291 19.3533C19.7737 19.4313 19.703 19.4972 19.6213 19.547C18.6765 20.1823 17.5597 20.5128 16.4213 20.494C15.302 20.5043 14.2059 20.1751 13.2773 19.55C13.1949 19.5018 13.1232 19.4372 13.0666 19.3602C13.01 19.2832 12.9698 19.1954 12.9485 19.1023C12.9271 19.0092 12.9251 18.9127 12.9424 18.8187C12.9597 18.7248 12.9961 18.6354 13.0493 18.556C13.1031 18.4753 13.173 18.4066 13.2545 18.3541C13.3361 18.3017 13.4276 18.2666 13.5234 18.2511C13.6191 18.2356 13.717 18.2401 13.8109 18.2641C13.9049 18.2882 13.9928 18.3314 14.0693 18.391C14.7802 18.8457 15.6067 19.0869 16.4505 19.086ZM18.8453 12.717C18.7551 12.7817 18.6613 12.8411 18.5643 12.895C17.8706 13.2767 17.0864 13.463 16.2951 13.4341C15.5039 13.4053 14.7353 13.1623 14.0713 12.731C13.9887 12.6703 13.8945 12.6272 13.7946 12.6045C13.6946 12.5818 13.591 12.5799 13.4903 12.599C13.3563 12.6231 13.233 12.6875 13.1366 12.7837C13.0403 12.8798 12.9756 13.0031 12.9513 13.137C12.9171 13.278 12.9288 13.4262 12.9845 13.5602C13.0403 13.6941 13.1372 13.8069 13.2613 13.882C14.2408 14.5334 15.3973 14.8669 16.5733 14.837C16.624 14.8321 16.6859 14.8273 16.7556 14.8219L16.7558 14.8219L16.7558 14.8219C16.9282 14.8085 17.1485 14.7913 17.3663 14.76C18.1818 14.6518 18.9596 14.3497 19.6343 13.879C19.7137 13.8284 19.782 13.7624 19.8353 13.6848C19.8885 13.6073 19.9256 13.5197 19.9443 13.4275C19.9629 13.3353 19.9628 13.2402 19.9439 13.1481C19.925 13.0559 19.8877 12.9684 19.8343 12.891C19.7817 12.8136 19.7141 12.7475 19.6354 12.6966C19.5568 12.6458 19.4688 12.6112 19.3766 12.595C19.2844 12.5787 19.1898 12.5812 19.0986 12.6021C19.0073 12.6231 18.9212 12.6622 18.8453 12.717ZM7.48831 8.60401C7.40525 8.45882 7.35762 8.29608 7.3493 8.12902C7.33421 7.86257 7.33849 7.59897 7.34278 7.33435C7.34418 7.24839 7.34558 7.16232 7.34631 7.07601H7.3533C7.3533 6.94531 7.3513 6.8146 7.3493 6.68394C7.3453 6.42272 7.3413 6.16165 7.3533 5.90102C7.36437 5.7477 7.42736 5.60272 7.53189 5.49001C7.63642 5.3773 7.77626 5.30358 7.92831 5.28101C8.0799 5.25616 8.23544 5.28186 8.37097 5.35415C8.50651 5.42643 8.61451 5.5413 8.67831 5.68102C8.71229 5.74898 8.73201 5.82317 8.7363 5.89902C8.73658 5.9366 8.73687 5.97417 8.73716 6.01174C8.74292 6.76317 8.74868 7.51458 8.7363 8.26601C8.72898 8.40769 8.67546 8.54307 8.58389 8.65143C8.49233 8.75979 8.36778 8.83517 8.22931 8.86602C8.09408 8.90838 7.94876 8.90575 7.81515 8.85851C7.68155 8.81127 7.56686 8.72196 7.48831 8.60401Z" fill="url(#paint0_linear_3_972)"/>
</g>
</svg>
