<svg width="24" height="24" viewBox="0 0 24 24" fill="none" xmlns="http://www.w3.org/2000/svg">
<mask id="mask0_3_985" style="mask-type:alpha" maskUnits="userSpaceOnUse" x="0" y="0" width="24" height="24">
<rect width="24" height="24" rx="11.5" fill="#C4C4C4"/>
</mask>
<g mask="url(#mask0_3_985)">
<path fill-rule="evenodd" clip-rule="evenodd" d="M8.74431 2.79196C8.82737 2.93715 8.875 3.09989 8.88331 3.26696C8.89857 3.53405 8.89695 3.80172 8.89532 4.06954C8.89482 4.15267 8.89431 4.23581 8.89431 4.31896H8.87831C8.87831 4.44966 8.88031 4.58036 8.88231 4.71103C8.88631 4.97225 8.89031 5.23333 8.87831 5.49396C8.86764 5.64778 8.80469 5.79333 8.69993 5.90646C8.59516 6.0196 8.45486 6.09352 8.30231 6.11596C8.15073 6.14081 7.99518 6.11511 7.85965 6.04282C7.72411 5.97054 7.61612 5.85568 7.55231 5.71596C7.51834 5.648 7.4986 5.57381 7.49431 5.49796C7.49431 5.24881 7.49312 5.00006 7.49192 4.7513C7.48933 4.21229 7.48673 3.67323 7.49631 3.12996C7.50363 2.98828 7.55717 2.8529 7.64873 2.74454C7.74029 2.63618 7.86484 2.56081 8.00331 2.52996C8.13854 2.48759 8.28387 2.49022 8.41748 2.53746C8.55108 2.5847 8.66577 2.674 8.74431 2.79196ZM16.3163 4.25394C17.3015 4.20717 18.2743 4.48853 19.0823 5.05395C19.3883 5.25519 19.6335 5.53622 19.7914 5.86668C19.9493 6.19713 20.014 6.56444 19.9783 6.92895C19.9194 7.42899 19.6732 7.88815 19.2893 8.21395C18.7103 8.72555 17.9866 9.04458 17.2183 9.12695C16.2172 9.3009 15.1867 9.13213 14.2933 8.64794C13.9734 8.46588 13.6855 8.23244 13.4413 7.95695C13.135 7.61851 12.9646 7.17882 12.9627 6.72236C12.9609 6.2659 13.1278 5.82485 13.4313 5.48394C13.9486 4.89227 14.6558 4.49911 15.4313 4.37194C15.6831 4.31968 15.9408 4.29342 16.1351 4.27363C16.2047 4.26654 16.2662 4.26028 16.3163 4.25394ZM17.2313 7.69395C17.6625 7.62894 18.0638 7.43473 18.3823 7.13694H18.3813C18.4456 7.08875 18.4977 7.0263 18.5337 6.95449C18.5696 6.88268 18.5884 6.8035 18.5885 6.7232C18.5886 6.64289 18.57 6.56366 18.5342 6.49177C18.4984 6.41988 18.4465 6.3573 18.3823 6.30895C18.2408 6.16987 18.0768 6.05559 17.8973 5.97094C17.4667 5.76994 16.9982 5.66296 16.523 5.6571C16.0478 5.65123 15.5768 5.74663 15.1413 5.93694C14.9382 6.02553 14.7516 6.14794 14.5893 6.29894C14.5227 6.34639 14.4682 6.40897 14.4305 6.48154C14.3927 6.55412 14.3728 6.63461 14.3722 6.71641C14.3716 6.79821 14.3904 6.87899 14.4271 6.9521C14.4638 7.0252 14.5174 7.08855 14.5833 7.13694C14.6839 7.23458 14.7961 7.31955 14.9173 7.38995C15.4321 7.66442 16.0103 7.79826 16.5933 7.77795C16.6289 7.77357 16.6721 7.7692 16.721 7.76426L16.7212 7.76424L16.7213 7.76423L16.7213 7.76422C16.8623 7.74998 17.0495 7.73105 17.2313 7.69395ZM10.4037 5.67162C10.5557 5.64895 10.7108 5.67795 10.8443 5.75395C10.9772 5.82383 11.0831 5.93597 11.1452 6.07268C11.2073 6.20939 11.2221 6.36288 11.1873 6.50895C11.1514 6.6439 11.0827 6.7679 10.9873 6.86995C10.5403 7.34595 10.0833 7.80795 9.62531 8.26995C9.31353 8.59263 8.90407 8.80351 8.46031 8.86995C8.4324 8.87683 8.40526 8.88655 8.37931 8.89895H7.85231C7.46585 8.83091 7.1029 8.66613 6.79731 8.41995C6.6507 8.28753 6.51003 8.14872 6.3685 8.00906C6.30055 7.94201 6.23241 7.87477 6.16331 7.80795C5.86331 7.50662 5.56331 7.20362 5.26331 6.89895C5.19785 6.83375 5.14587 6.75629 5.11034 6.671C5.07481 6.58571 5.05643 6.49426 5.05624 6.40187C5.05606 6.30947 5.07407 6.21795 5.10926 6.13251C5.14444 6.04708 5.19611 5.96942 5.26131 5.90395C5.32652 5.83849 5.40397 5.78651 5.48926 5.75098C5.57455 5.71545 5.66601 5.69707 5.7584 5.69688C5.85079 5.6967 5.94232 5.71471 6.02775 5.7499C6.11318 5.78508 6.19085 5.83675 6.25631 5.90195C6.54972 6.19336 6.84179 6.48698 7.13371 6.78046C7.27957 6.92709 7.42539 7.07369 7.57131 7.21995C7.63739 7.30528 7.72212 7.37435 7.81901 7.42187C7.91591 7.46939 8.0224 7.49409 8.13031 7.49409C8.23823 7.49409 8.34472 7.46939 8.44162 7.42187C8.53851 7.37435 8.62324 7.30528 8.68931 7.21995L8.9524 6.95062L8.95249 6.95052C9.30236 6.59218 9.6521 6.23397 10.0063 5.87895C10.1118 5.76729 10.2518 5.69428 10.4037 5.67162ZM10.6443 10.7459C9.83561 10.1803 8.86209 9.89895 7.87632 9.94594C7.82625 9.9523 7.76475 9.95859 7.69503 9.96572L7.69502 9.96572C7.50153 9.9855 7.24473 10.0117 6.99332 10.0639C6.21748 10.1916 5.51033 10.5855 4.99332 11.1779C4.69694 11.5204 4.53379 11.9581 4.53379 12.4109C4.53379 12.8638 4.69694 13.3015 4.99332 13.6439C5.30259 14.0139 5.6968 14.3035 6.14231 14.4879C7.04212 14.8732 8.03772 14.9761 8.99729 14.7829C9.70181 14.6754 10.359 14.3623 10.8863 13.8829C11.2514 13.5628 11.4862 13.1198 11.5463 12.6379C11.5846 12.2701 11.5206 11.8989 11.3614 11.5651C11.2023 11.2312 10.9542 10.9478 10.6443 10.7459ZM9.99632 12.7649C9.83141 12.9381 9.63531 13.0785 9.41831 13.1789C8.95615 13.3892 8.45183 13.4905 7.94431 13.4749C7.4368 13.4593 6.93967 13.3272 6.49131 13.0889C6.34266 13.0076 6.20904 12.9014 6.09629 12.7749C6.04634 12.7287 6.00648 12.6726 5.97923 12.6102C5.95197 12.5479 5.9379 12.4805 5.9379 12.4124C5.9379 12.3444 5.95197 12.277 5.97923 12.2146C6.00648 12.1523 6.04634 12.0962 6.09629 12.0499C6.29948 11.8293 6.55555 11.6641 6.84031 11.5699C7.23789 11.4253 7.6583 11.3535 8.08134 11.3579C8.6211 11.3504 9.15328 11.4853 9.62431 11.7489C9.7645 11.8332 9.89154 11.9377 10.0013 12.0589C10.0512 12.1033 10.0911 12.1579 10.1183 12.2189C10.1455 12.2799 10.1594 12.346 10.159 12.4128C10.1587 12.4797 10.144 12.5456 10.1161 12.6063C10.0882 12.667 10.0477 12.7211 9.99729 12.7649H9.99632ZM16.4468 10.5824C17.2907 10.5824 18.1169 10.3404 18.8273 9.88496C18.9026 9.82671 18.989 9.78443 19.0812 9.76072C19.1735 9.73701 19.2695 9.73236 19.3636 9.74705C19.4577 9.76175 19.5478 9.79548 19.6284 9.84619C19.7089 9.8969 19.7783 9.96351 19.8323 10.042C19.8862 10.1208 19.9236 10.2097 19.9422 10.3034C19.9608 10.3971 19.9602 10.4936 19.9405 10.587C19.9208 10.6805 19.8823 10.769 19.8275 10.8472C19.7726 10.9254 19.7025 10.9916 19.6213 11.042C18.6766 11.6778 17.5599 12.009 16.4213 11.991C15.3032 12.0014 14.2081 11.673 13.2803 11.049C13.197 10.9997 13.1247 10.9338 13.068 10.8554C13.0112 10.777 12.9711 10.6878 12.9502 10.5933C12.9293 10.4988 12.928 10.401 12.9464 10.306C12.9649 10.211 13.0026 10.1208 13.0573 10.041C13.1113 9.962 13.181 9.89496 13.262 9.84397C13.3429 9.79298 13.4335 9.75913 13.528 9.74451C13.6226 9.72989 13.7191 9.73481 13.8117 9.75897C13.9043 9.78313 13.991 9.82601 14.0663 9.88496C14.7768 10.3404 15.6029 10.5824 16.4468 10.5824ZM4.8473 16.748C5.77438 17.3711 6.86831 17.6991 7.9853 17.689C9.11372 17.7065 10.2211 17.3827 11.1623 16.76C11.2478 16.7112 11.3223 16.6452 11.3811 16.5663C11.4399 16.4874 11.4817 16.3971 11.504 16.3013C11.5262 16.2054 11.5284 16.1059 11.5104 16.0092C11.4924 15.9124 11.4546 15.8204 11.3993 15.739C11.3439 15.6594 11.2728 15.5921 11.1903 15.5412C11.1077 15.4903 11.0155 15.457 10.9196 15.4433C10.8236 15.4296 10.7259 15.4358 10.6324 15.4616C10.5389 15.4873 10.4517 15.532 10.3763 15.593C9.66874 16.0412 8.84841 16.2792 8.01081 16.2792C7.17322 16.2792 6.35288 16.0412 5.64534 15.593C5.56972 15.5323 5.48245 15.4878 5.38893 15.4623C5.2954 15.4368 5.19764 15.4308 5.1017 15.4447C5.00576 15.4586 4.91365 15.492 4.83119 15.543C4.74873 15.594 4.67765 15.6613 4.62233 15.741C4.56801 15.8209 4.53063 15.9112 4.51252 16.0061C4.49442 16.1011 4.49596 16.1988 4.51704 16.2931C4.53812 16.3875 4.57834 16.4765 4.63514 16.5547C4.69194 16.6329 4.76412 16.6987 4.8473 16.748ZM16.4448 16.295C17.2937 16.295 18.1237 16.0449 18.8313 15.5759C18.9087 15.5202 18.9965 15.4804 19.0895 15.4591C19.1825 15.4377 19.2788 15.4351 19.3728 15.4515C19.4668 15.4679 19.5566 15.503 19.6369 15.5546C19.7172 15.6061 19.7863 15.6733 19.8403 15.7519C19.8935 15.8298 19.9304 15.9175 19.9488 16.0099C19.9673 16.1023 19.9669 16.1975 19.9476 16.2898C19.9284 16.3821 19.8907 16.4695 19.8369 16.5468C19.7831 16.6242 19.7141 16.6899 19.6343 16.7399C18.8843 17.2578 18.0131 17.573 17.1053 17.6549C16.9442 17.6716 16.7831 17.6803 16.6481 17.6877L16.648 17.6877L16.6479 17.6877L16.6478 17.6877L16.6475 17.6877C16.5958 17.6906 16.5479 17.6932 16.5053 17.6959C15.3568 17.717 14.2294 17.3862 13.2743 16.7479C13.1914 16.6993 13.1194 16.6341 13.0628 16.5565C13.0061 16.4788 12.9661 16.3903 12.9452 16.2965C12.9243 16.2027 12.9229 16.1055 12.9411 16.0112C12.9594 15.9168 12.9969 15.8272 13.0513 15.7479C13.1055 15.6697 13.1747 15.6031 13.255 15.552C13.3352 15.5009 13.4249 15.4663 13.5187 15.4503C13.6124 15.4343 13.7085 15.4372 13.8011 15.4587C13.8938 15.4803 13.9812 15.5202 14.0583 15.5759C14.7659 16.0449 15.5959 16.295 16.4448 16.295ZM10.3753 18.405C9.66782 18.8533 8.84747 19.0914 8.00985 19.0914C7.17222 19.0914 6.35181 18.8533 5.64431 18.405C5.56857 18.3444 5.4812 18.3001 5.38759 18.2747C5.29399 18.2494 5.19619 18.2435 5.10024 18.2576C5.00429 18.2717 4.91224 18.3053 4.82985 18.3565C4.74747 18.4077 4.67652 18.4752 4.62136 18.555C4.56727 18.6351 4.5301 18.7255 4.51223 18.8205C4.49435 18.9155 4.49609 19.0132 4.51735 19.1075C4.53861 19.2018 4.57897 19.2908 4.63588 19.3689C4.6928 19.4471 4.76511 19.5128 4.84835 19.562C5.77588 20.1848 6.87012 20.5125 7.98732 20.502C9.11551 20.519 10.2225 20.1948 11.1633 19.572C11.2489 19.5232 11.3233 19.4573 11.3821 19.3783C11.4409 19.2993 11.4827 19.209 11.5049 19.1131C11.5271 19.0172 11.5291 18.9178 11.5109 18.821C11.4928 18.7242 11.4548 18.6323 11.3993 18.551C11.3439 18.4712 11.2727 18.4038 11.1901 18.3528C11.1075 18.3019 11.0152 18.2685 10.9191 18.2548C10.823 18.2411 10.7252 18.2474 10.6316 18.2732C10.538 18.299 10.4508 18.3439 10.3753 18.405ZM16.4505 19.0919C17.2944 19.091 18.1204 18.8481 18.8303 18.3919C18.906 18.3334 18.9928 18.291 19.0855 18.2673C19.1782 18.2436 19.2747 18.2392 19.3692 18.2543C19.4636 18.2694 19.554 18.3036 19.6347 18.355C19.7154 18.4064 19.7847 18.4737 19.8383 18.5529C19.892 18.6321 19.929 18.7214 19.9472 18.8153C19.9653 18.9093 19.9642 19.0059 19.9439 19.0994C19.9236 19.1929 19.8846 19.2813 19.8291 19.3593C19.7737 19.4372 19.703 19.5031 19.6213 19.5529C18.6765 20.1882 17.5597 20.5187 16.4213 20.4999C15.302 20.5102 14.2059 20.1811 13.2773 19.5559C13.1949 19.5077 13.1232 19.4431 13.0666 19.3661C13.01 19.2891 12.9698 19.2013 12.9485 19.1082C12.9271 19.0151 12.925 18.9186 12.9424 18.8247C12.9597 18.7307 12.9961 18.6413 13.0493 18.5619C13.1031 18.4812 13.173 18.4125 13.2545 18.3601C13.3361 18.3076 13.4276 18.2725 13.5234 18.257C13.6191 18.2416 13.717 18.246 13.8109 18.2701C13.9049 18.2941 13.9928 18.3373 14.0693 18.3969C14.7802 18.8516 15.6067 19.0928 16.4505 19.0919ZM18.8453 12.723C18.7551 12.7876 18.6613 12.8471 18.5643 12.901C17.8706 13.2826 17.0864 13.469 16.2951 13.4401C15.5039 13.4112 14.7353 13.1682 14.0713 12.737C13.9887 12.6762 13.8945 12.6331 13.7946 12.6104C13.6946 12.5877 13.591 12.5859 13.4903 12.605C13.3563 12.629 13.233 12.6935 13.1366 12.7896C13.0403 12.8858 12.9756 13.009 12.9513 13.143C12.9171 13.284 12.9288 13.4322 12.9845 13.5661C13.0403 13.7001 13.1372 13.8128 13.2613 13.888C14.2408 14.5394 15.3974 14.8729 16.5733 14.843C16.624 14.8381 16.6859 14.8332 16.7556 14.8278L16.7558 14.8278C16.9282 14.8144 17.1485 14.7973 17.3663 14.766C18.1818 14.6578 18.9596 14.3557 19.6343 13.885C19.7137 13.8344 19.782 13.7684 19.8353 13.6908C19.8885 13.6132 19.9256 13.5257 19.9443 13.4335C19.9629 13.3412 19.9628 13.2462 19.9439 13.154C19.925 13.0618 19.8877 12.9744 19.8343 12.897C19.7817 12.8195 19.7141 12.7534 19.6354 12.7025C19.5568 12.6517 19.4688 12.6171 19.3766 12.6009C19.2844 12.5847 19.1898 12.5871 19.0986 12.6081C19.0073 12.6291 18.9212 12.6681 18.8453 12.723Z" fill="url(#paint0_linear_3_985)"/>
</g>
<defs>
<linearGradient id="paint0_linear_3_985" x1="9.45353" y1="4.75032" x2="15.7518" y2="20.9551" gradientUnits="userSpaceOnUse">
<stop stop-color="#00BCC8"/>
<stop offset="1" stop-color="#2787BD"/>
</linearGradient>
</defs>
</svg>
