<svg width="24" height="24" viewBox="0 0 24 24" fill="none" xmlns="http://www.w3.org/2000/svg">
<mask id="mask0_3_941" style="mask-type:alpha" maskUnits="userSpaceOnUse" x="0" y="0" width="24" height="24">
<rect width="24" height="24" rx="11.5" fill="#C4C4C4"/>
</mask>
<g mask="url(#mask0_3_941)">
<path fill-rule="evenodd" clip-rule="evenodd" d="M20.4865 11.2302V12.1426C20.4865 12.4631 20.4898 12.7842 20.4932 13.1061L20.4932 13.1065V13.1066V13.1067C20.4993 13.6906 20.5055 14.2768 20.4916 14.8656C20.4887 15.6811 20.2657 16.4805 19.8461 17.1797C19.4265 17.8789 18.8258 18.4519 18.1076 18.8381C17.6732 19.0824 17.1611 19.1494 16.6784 19.0251C16.1957 18.9008 15.7797 18.5949 15.5172 18.1712C15.2427 17.7573 15.1327 17.2558 15.2087 16.7651C15.2848 16.2743 15.5414 15.8296 15.9282 15.5181C15.9891 15.473 16.0549 15.4328 16.1204 15.3928C16.14 15.3808 16.1596 15.3689 16.179 15.3568C16.2811 15.3 16.3659 15.2164 16.4242 15.115C16.4825 15.0136 16.5121 14.8982 16.5099 14.7813V9.47402C16.5107 9.38654 16.4939 9.29982 16.4607 9.21889C16.4275 9.13796 16.3784 9.06444 16.3163 9.00277C16.2543 8.9411 16.1806 8.89249 16.0994 8.85978C16.0183 8.82706 15.9314 8.81099 15.8439 8.81236C15.772 8.81236 15.7001 8.81305 15.6281 8.81373C15.4843 8.8151 15.3404 8.81647 15.1966 8.81236C15.1595 8.80679 15.1218 8.81469 15.0901 8.83469C15.0584 8.85468 15.0349 8.88539 15.024 8.92124C14.9003 9.22026 14.7052 9.48436 14.4558 9.69052C14.2063 9.89668 13.9101 10.0386 13.5932 10.1038C13.2762 10.169 12.9482 10.1555 12.6376 10.0646C12.3271 9.97358 12.0436 9.80794 11.8119 9.58202C11.3187 9.11757 10.8429 8.63802 10.3846 8.14343C10.0512 7.78129 9.86618 7.30696 9.86618 6.81472C9.86618 6.32248 10.0512 5.84827 10.3846 5.48613C10.8552 4.98058 11.3443 4.48939 11.8509 4.02083C12.083 3.80813 12.3624 3.65377 12.666 3.57052C12.9696 3.48728 13.2886 3.4776 13.5967 3.54218C13.9048 3.60675 14.1931 3.74379 14.4377 3.94193C14.6823 4.14007 14.8763 4.39363 15.0034 4.68161C15.0167 4.73042 15.0476 4.77265 15.0901 4.80014C15.1326 4.82763 15.1836 4.83847 15.2336 4.83062C15.8905 4.79096 16.5495 4.85616 17.1859 5.02379C18.0619 5.2881 18.8397 5.80633 19.421 6.51293C20.0023 7.21952 20.3609 8.08275 20.4515 8.99324C20.4921 9.50743 20.4892 10.0251 20.4864 10.5428C20.4852 10.772 20.4839 11.0012 20.4865 11.2302ZM18.7206 16.4431C19.0096 15.942 19.1598 15.3731 19.1557 14.7948V14.7906C19.1696 14.1601 19.1658 13.5291 19.1621 12.9016V12.9016V12.9015L19.1621 12.9011C19.1606 12.6432 19.159 12.3858 19.1587 12.1293V9.59218C19.1581 9.40989 19.1479 9.22787 19.128 9.04667C19.0363 8.32263 18.7064 7.64957 18.1902 7.13369C17.6739 6.61782 17.0007 6.28836 16.2766 6.19721C15.8775 6.1591 15.4751 6.16011 15.0726 6.16113H15.0726C14.9217 6.16151 14.7708 6.16189 14.6201 6.16021C14.5207 6.17403 14.4196 6.1657 14.3238 6.13575C14.2281 6.1058 14.1401 6.05498 14.0663 5.98699C13.9925 5.919 13.9348 5.83551 13.8971 5.74252C13.8594 5.64953 13.8428 5.5493 13.8484 5.44913C13.8427 5.32642 13.8016 5.20809 13.7299 5.10833C13.6582 5.00857 13.5591 4.93166 13.4447 4.88707C13.3316 4.83113 13.2039 4.81168 13.0793 4.83137C12.9547 4.85107 12.8393 4.90899 12.749 4.99707C12.2791 5.44988 11.8177 5.91085 11.3649 6.38009C11.2517 6.50442 11.1904 6.66724 11.1933 6.83529C11.1961 7.00334 11.263 7.16394 11.3803 7.28434C11.818 7.72276 12.2557 8.16089 12.6934 8.59862C12.7824 8.69909 12.9006 8.76924 13.0314 8.79944C13.1621 8.82965 13.299 8.81834 13.4231 8.76708C13.5503 8.7223 13.6601 8.63876 13.7372 8.52813C13.8142 8.4175 13.8546 8.28539 13.8526 8.15058C13.8515 8.06028 13.8689 7.97072 13.9037 7.88742C13.9386 7.80412 13.9902 7.72887 14.0553 7.66628C14.1204 7.60369 14.1976 7.55511 14.2822 7.52354C14.3668 7.49197 14.457 7.47801 14.5472 7.48265H15.8409C16.1029 7.48224 16.3623 7.53356 16.6043 7.63367C16.8464 7.73378 17.0662 7.88073 17.2513 8.06604C17.4364 8.25135 17.5832 8.47137 17.683 8.71352C17.7829 8.95567 17.834 9.21522 17.8333 9.47716C17.8384 11.2404 17.8415 13.0037 17.8333 14.768C17.8409 15.1215 17.7516 15.4703 17.5752 15.7768C17.3988 16.0832 17.142 16.3355 16.8325 16.5065C16.7574 16.5502 16.6917 16.6085 16.6393 16.6778C16.5869 16.747 16.5488 16.826 16.5272 16.9102C16.5056 16.9943 16.501 17.0819 16.5135 17.1678C16.526 17.2538 16.5554 17.3363 16.6002 17.4108C16.6411 17.4896 16.6982 17.5589 16.7677 17.6141C16.8373 17.6694 16.9177 17.7094 17.0037 17.7315C17.0897 17.7536 17.1793 17.7573 17.2668 17.7424C17.3544 17.7276 17.4378 17.6944 17.5117 17.6451C18.0144 17.359 18.4316 16.9441 18.7206 16.4431ZM11.335 13.9235C11.6433 14.0097 11.9261 14.1694 12.1591 14.3888C12.6585 14.8461 13.1374 15.331 13.6039 15.8253C13.9409 16.1885 14.1283 16.6657 14.1283 17.1611C14.1283 17.6566 13.9409 18.1338 13.6039 18.497C13.1894 18.9437 12.7527 19.3697 12.3166 19.7951L12.3165 19.7951L12.1653 19.9427C11.8786 20.224 11.5082 20.4044 11.11 20.4565C11.0835 20.4628 11.0577 20.4718 11.033 20.4832H10.5685C10.5544 20.4744 10.5393 20.4675 10.5234 20.4627C10.1765 20.4142 9.84847 20.2753 9.57233 20.0599C9.29619 19.8445 9.08169 19.5604 8.95018 19.2358C8.9346 19.2137 8.91414 19.1953 8.89048 19.1821C8.86681 19.169 8.8405 19.1612 8.81346 19.1597H8.10038C7.08979 19.1494 6.11014 18.8097 5.31012 18.1922C4.5101 17.5747 3.93331 16.713 3.66745 15.738C3.61629 15.5499 3.58328 15.3567 3.55026 15.1634C3.53421 15.0695 3.51815 14.9755 3.5 14.882V8.81133C3.52568 8.69817 3.54774 8.58474 3.56977 8.47142C3.60855 8.27193 3.64726 8.07282 3.70558 7.87623C3.87215 7.29821 4.1521 6.75922 4.5293 6.29063C4.9065 5.82204 5.37332 5.43325 5.90242 5.14706C6.33637 4.90953 6.84449 4.84631 7.32344 4.9702C7.80239 5.09409 8.21621 5.39582 8.48056 5.81399C8.75417 6.22514 8.86558 6.72313 8.79327 7.21168C8.72095 7.70023 8.47007 8.1446 8.08909 8.45886C8.02266 8.51044 7.95087 8.55431 7.87916 8.59813L7.87911 8.59816L7.87905 8.5982C7.85651 8.61197 7.83398 8.62574 7.81163 8.63974C7.71023 8.69811 7.62649 8.78271 7.56917 8.88471C7.51184 8.9867 7.48303 9.10227 7.48588 9.21924V14.508C7.48377 14.5968 7.49964 14.6851 7.53267 14.7676C7.56569 14.8501 7.61521 14.9251 7.67804 14.9879C7.74087 15.0507 7.81582 15.1001 7.8983 15.1331C7.98079 15.1662 8.06912 15.1822 8.15795 15.1801C8.22946 15.1801 8.30119 15.1793 8.373 15.1785H8.37303H8.37307C8.51687 15.1769 8.66096 15.1753 8.80418 15.1801C8.84146 15.1848 8.87924 15.1758 8.91042 15.1548C8.9416 15.1339 8.96411 15.1024 8.97376 15.066C9.09741 14.7708 9.29071 14.5099 9.53721 14.3057C9.78371 14.1015 10.076 13.9599 10.3891 13.8934C10.7023 13.8268 11.0268 13.8372 11.335 13.9235ZM11.2436 18.9892C11.7087 18.5398 12.1664 18.0825 12.6165 17.6173V17.6132C12.7316 17.4887 12.7945 17.3247 12.7922 17.1551C12.7899 16.9855 12.7225 16.8232 12.604 16.7018C12.3899 16.4862 12.1751 16.2713 11.9602 16.0564L11.9598 16.056L11.9594 16.0556C11.7446 15.8407 11.5297 15.6259 11.3156 15.4102C11.2255 15.3035 11.1036 15.2281 10.9678 15.1952C10.832 15.1623 10.6892 15.1736 10.5602 15.2273C10.4321 15.2751 10.3223 15.3619 10.2462 15.4755C10.17 15.589 10.1314 15.7236 10.1359 15.8603C10.1324 16.034 10.0603 16.1993 9.93533 16.32C9.81038 16.4407 9.64282 16.507 9.4691 16.5045H8.75589H8.15895C7.89562 16.5059 7.63459 16.455 7.39105 16.3549C7.14752 16.2547 6.92634 16.1072 6.74018 15.921C6.55402 15.7347 6.40661 15.5133 6.30656 15.2697C6.20651 15.0262 6.1558 14.7652 6.15729 14.5018C6.15044 12.7441 6.15044 10.986 6.15729 9.22752C6.14888 8.87117 6.2381 8.51933 6.41544 8.21013C6.59277 7.90093 6.85145 7.64614 7.16327 7.47346C7.25756 7.41774 7.33738 7.34067 7.39645 7.24844C7.46983 7.11711 7.49753 6.9651 7.47522 6.81632C7.4529 6.66754 7.38184 6.53037 7.27315 6.42635C7.17231 6.3176 7.03536 6.24938 6.88782 6.23444C6.74027 6.21949 6.59222 6.25887 6.47163 6.34519C5.96289 6.63347 5.54158 7.05392 5.25217 7.56202C4.96276 8.07011 4.81604 8.64691 4.82758 9.23153C4.81936 10.381 4.8221 11.5309 4.82484 12.6809C4.82621 13.256 4.82758 13.8311 4.82758 14.4063C4.82784 14.5996 4.83924 14.7927 4.86157 14.9848C4.96269 15.6989 5.29507 16.3602 5.80784 16.8674C6.32061 17.3746 6.98544 17.6998 7.70062 17.7931C8.1094 17.8321 8.52202 17.8311 8.93407 17.8301H8.93412C9.08655 17.8298 9.2389 17.8294 9.39095 17.8311C9.48779 17.8204 9.58579 17.831 9.67819 17.8618C9.7706 17.8927 9.85518 17.9431 9.92618 18.0098C9.99718 18.0765 10.0529 18.1578 10.0895 18.2481C10.126 18.3384 10.1426 18.4356 10.138 18.5329C10.1423 18.6583 10.1836 18.7798 10.2567 18.8818C10.3298 18.9839 10.4315 19.0619 10.549 19.1062C10.6628 19.16 10.7905 19.1776 10.9147 19.1567C11.0389 19.1357 11.1536 19.0773 11.2436 18.9892ZM9.33954 12.6521H10.0023H10.6651C10.7524 12.6525 10.8388 12.6357 10.9195 12.6026C11.0002 12.5695 11.0736 12.5207 11.1354 12.4591C11.1972 12.3975 11.2462 12.3243 11.2796 12.2437C11.313 12.1631 11.33 12.0767 11.3299 11.9895C11.3303 11.9023 11.3135 11.8158 11.2802 11.7352C11.247 11.6546 11.1981 11.5814 11.1364 11.5199C11.0746 11.4583 11.0012 11.4096 10.9205 11.3766C10.8398 11.3436 10.7533 11.327 10.6661 11.3277C10.2243 11.3229 9.78252 11.3229 9.34067 11.3277C9.25352 11.3271 9.16707 11.3438 9.08642 11.3769C9.00577 11.4099 8.93252 11.4587 8.8708 11.5202C8.80908 11.5818 8.76009 11.6548 8.72681 11.7354C8.69352 11.8159 8.67661 11.9023 8.67688 11.9895C8.67675 12.0766 8.6938 12.1628 8.72706 12.2432C8.76032 12.3237 8.80911 12.3968 8.87068 12.4583C8.93225 12.5199 9.00532 12.5687 9.08579 12.602C9.16627 12.6352 9.25247 12.6523 9.33954 12.6521ZM13.3224 11.3277C13.7635 11.3229 14.205 11.3229 14.6468 11.3277C14.7342 11.3267 14.8209 11.3431 14.9018 11.376C14.9828 11.4089 15.0563 11.4575 15.1183 11.5191C15.1803 11.5807 15.2294 11.654 15.2628 11.7347C15.2962 11.8155 15.3131 11.9021 15.3127 11.9895C15.3129 12.0767 15.2957 12.1631 15.2623 12.2437C15.2289 12.3243 15.18 12.3975 15.1182 12.4591C15.0564 12.5207 14.983 12.5695 14.9023 12.6026C14.8216 12.6357 14.7351 12.6525 14.6478 12.6521H13.9687H13.3224C13.2352 12.6524 13.1488 12.6355 13.0682 12.6023C12.9876 12.5691 12.9144 12.5203 12.8527 12.4587C12.7911 12.3971 12.7422 12.324 12.7089 12.2435C12.6755 12.1629 12.6584 12.0766 12.6586 11.9895C12.6583 11.9023 12.6752 11.8159 12.7085 11.7354C12.7418 11.6548 12.7908 11.5818 12.8525 11.5202C12.9142 11.4587 12.9875 11.4099 13.0681 11.3769C13.1488 11.3438 13.2352 11.3271 13.3224 11.3277Z" fill="url(#paint0_linear_3_941)"/>
</g>
<defs>
<linearGradient id="paint0_linear_3_941" x1="8.93717" y1="5.62291" x2="14.2252" y2="21.453" gradientUnits="userSpaceOnUse">
<stop stop-color="#00BCC8"/>
<stop offset="1" stop-color="#2787BD"/>
</linearGradient>
</defs>
</svg>
