<svg width="24" height="24" viewBox="0 0 24 24" fill="none" xmlns="http://www.w3.org/2000/svg">
<mask id="mask0_3_948" style="mask-type:alpha" maskUnits="userSpaceOnUse" x="0" y="0" width="24" height="24">
<rect width="24" height="24" rx="11.5" fill="#C4C4C4"/>
</mask>
<g mask="url(#mask0_3_948)">
<path fill-rule="evenodd" clip-rule="evenodd" d="M6.79223 5.59153C6.87754 5.59349 6.96241 5.57853 7.04192 5.54755C7.12144 5.51656 7.19404 5.47014 7.25553 5.41097C7.31702 5.3518 7.36621 5.28104 7.40023 5.20278C7.43425 5.12451 7.45242 5.04027 7.45374 4.95494C7.45215 4.86955 7.46747 4.78468 7.49885 4.70524C7.53024 4.62581 7.57709 4.55339 7.63662 4.49214C7.69614 4.4309 7.7672 4.38204 7.84571 4.34841C7.92422 4.31478 8.00859 4.29703 8.094 4.29619C8.1808 4.29481 8.26697 4.31092 8.34742 4.34356C8.42786 4.3762 8.50091 4.4247 8.56221 4.48617C8.62351 4.54764 8.67184 4.62082 8.70425 4.70135C8.73667 4.78189 8.75251 4.86814 8.75089 4.95494C8.75221 5.04027 8.77038 5.12451 8.8044 5.20278C8.83842 5.28104 8.88761 5.3518 8.9491 5.41097C9.01059 5.47014 9.08319 5.51656 9.16271 5.54755C9.24222 5.57853 9.32709 5.59349 9.4124 5.59153C9.49903 5.58979 9.58442 5.57064 9.66351 5.53525C9.7426 5.49987 9.8138 5.44896 9.87283 5.38554C9.93186 5.32211 9.97753 5.24744 10.0072 5.16601C10.0368 5.08458 10.0497 4.99805 10.0453 4.91152C10.0417 4.61595 9.97018 4.32519 9.83606 4.06177C9.70195 3.79836 9.50893 3.56938 9.27199 3.39265C9.0002 3.19821 8.68984 3.06433 8.36191 3H7.84362C7.80948 3.01305 7.77465 3.02411 7.73925 3.03321C7.3009 3.11877 6.905 3.35179 6.61742 3.69349C6.32984 4.03519 6.16791 4.46501 6.15846 4.91152C6.15398 4.99813 6.16695 5.08475 6.19663 5.16624C6.22631 5.24772 6.27211 5.32244 6.33124 5.38588C6.39037 5.44932 6.46164 5.5002 6.54084 5.53554C6.62004 5.57087 6.70552 5.58991 6.79223 5.59153ZM18.4673 9.115C18.251 8.73176 17.9396 8.41077 17.5631 8.18304C17.1681 7.92945 16.7075 7.79707 16.2382 7.80235C13.2737 7.79496 10.3089 7.79496 7.34382 7.80235C6.66873 7.80958 6.0234 8.08129 5.54644 8.55911C5.06948 9.03693 4.79896 9.6828 4.79295 10.3579C4.78556 12.1509 4.78556 13.9438 4.79295 15.7368C4.79803 16.4148 5.06978 17.0635 5.54937 17.5428C6.02896 18.022 6.67791 18.2933 7.35589 18.2979C8.54319 18.3003 8.55253 18.3002 8.61161 18.2995C8.66585 18.2989 8.76203 18.2979 9.85038 18.2979C9.93105 18.2946 10.0118 18.2995 10.0915 18.3127C10.2493 18.3449 10.3894 18.4348 10.4844 18.5648C10.5794 18.6948 10.6225 18.8556 10.6052 19.0157C10.5875 19.1789 10.5085 19.3292 10.3842 19.4362C10.2598 19.5433 10.0994 19.5991 9.93541 19.5923H7.46021C6.51937 19.6103 5.60392 19.2863 4.88396 18.6803C4.16401 18.0744 3.68853 17.2277 3.54571 16.2976C3.51258 16.0837 3.49737 15.8674 3.50037 15.6509V10.4336C3.48868 9.49558 3.8168 8.58498 4.42405 7.86991C5.03129 7.15483 5.87672 6.68354 6.80428 6.5431C7.01833 6.5112 7.23457 6.49668 7.45097 6.49968H16.1356C17.0767 6.48243 17.992 6.80698 18.712 7.41314C19.432 8.0193 19.9078 8.86595 20.0512 9.79614C20.0604 9.84872 20.0705 9.90131 20.0806 9.95389L20.0955 10.0317V10.5177C20.0921 10.5251 20.0884 10.5326 20.0848 10.54C20.0767 10.5567 20.0686 10.5735 20.0622 10.5907C20.0135 10.7352 19.9159 10.8583 19.7862 10.9386C19.6565 11.0188 19.5029 11.0514 19.3518 11.0305C19.1953 11.006 19.053 10.9257 18.9511 10.8044C18.8492 10.6832 18.7946 10.5292 18.7974 10.3708C18.7972 9.93078 18.6835 9.49825 18.4673 9.115ZM16.6225 17.5052L16.1402 16.3781C16.0893 16.2534 16.0316 16.1316 15.9675 16.0131C15.9139 15.9124 15.8521 15.8163 15.7827 15.7258C15.7206 15.6461 15.6493 15.5742 15.5702 15.5114C15.4955 15.4527 15.4146 15.4022 15.3291 15.3609C15.4962 15.3095 15.6554 15.2351 15.8021 15.14C15.9359 15.0531 16.054 14.9441 16.1513 14.8176C16.2473 14.6907 16.3198 14.5477 16.3657 14.3953C16.4161 14.2254 16.4407 14.0488 16.4386 13.8715C16.4424 13.6659 16.4079 13.4613 16.337 13.2682C16.2722 13.0974 16.1721 12.9422 16.0432 12.8128C15.9083 12.6802 15.7493 12.5745 15.5748 12.5014C15.3763 12.4179 15.1675 12.3613 14.9539 12.3332C14.8745 12.3246 14.7861 12.3172 14.6888 12.311C14.5915 12.3049 14.4683 12.3018 14.3192 12.3018H12.841C12.7513 12.2989 12.6636 12.3295 12.5953 12.3877C12.5597 12.4241 12.5323 12.4676 12.5151 12.5155C12.4979 12.5633 12.4912 12.6142 12.4954 12.6649V17.8591C12.4953 17.8878 12.5047 17.9157 12.5222 17.9385C12.5466 17.9664 12.5788 17.9864 12.6147 17.9958C12.6731 18.0134 12.7331 18.0251 12.7939 18.0309C12.8859 18.0404 12.9785 18.0448 13.0711 18.0439C13.1655 18.045 13.2599 18.0407 13.3538 18.0309C13.4136 18.025 13.4727 18.0133 13.5302 17.9958C13.5657 17.9856 13.5977 17.9658 13.6226 17.9385C13.6413 17.9163 13.6514 17.8881 13.6513 17.8591V15.6796H14.0134C14.1251 15.6774 14.2362 15.6969 14.3405 15.7369C14.4347 15.7753 14.5197 15.8332 14.5899 15.9069C14.6681 15.9897 14.7343 16.083 14.7868 16.1841C14.8483 16.2962 14.9099 16.4243 14.9715 16.5684L15.4843 17.8462C15.4943 17.879 15.5093 17.9101 15.5286 17.9385C15.5523 17.9682 15.5846 17.9898 15.621 18.0004C15.6774 18.0194 15.7362 18.0306 15.7956 18.0337C15.8695 18.0399 15.9684 18.0429 16.0922 18.0429C16.2394 18.0429 16.3558 18.0399 16.4414 18.0337C16.5074 18.031 16.5728 18.0204 16.6364 18.0023C16.6702 17.9948 16.7002 17.975 16.7204 17.9469C16.733 17.9213 16.739 17.893 16.738 17.8646C16.736 17.8231 16.7285 17.7822 16.7158 17.7427C16.6979 17.6965 16.6669 17.6173 16.6225 17.5052ZM15.1729 14.327C15.1324 14.4265 15.0691 14.5151 14.9881 14.5857C14.8976 14.6624 14.7923 14.7196 14.6787 14.7538C14.5382 14.7961 14.392 14.8164 14.2453 14.8139H13.6531V13.1915H14.1751C14.279 13.1901 14.383 13.1944 14.4865 13.2044C14.5543 13.2118 14.6216 13.2236 14.6879 13.2396C14.8576 13.2764 15.0075 13.3752 15.1082 13.5167C15.1975 13.6597 15.2422 13.826 15.2367 13.9944C15.2369 14.1081 15.2149 14.2208 15.172 14.3261L15.1729 14.327ZM21.4009 15.0024C21.3502 14.758 21.2563 14.5246 21.1237 14.3131C20.9985 14.1206 20.8278 13.9619 20.6267 13.8512C20.399 13.7319 20.1444 13.6733 19.8875 13.6812C19.756 13.6806 19.6248 13.6954 19.4968 13.7255C19.3731 13.7556 19.2536 13.8009 19.1411 13.8604C19.0212 13.9242 18.9079 13.9997 18.8029 14.0859C18.6843 14.1831 18.5715 14.2871 18.4648 14.3972V13.9352C18.4654 13.9077 18.4577 13.8807 18.4426 13.8576C18.4229 13.8318 18.3958 13.8125 18.365 13.8022C18.3179 13.785 18.2689 13.7738 18.219 13.7689C18.1448 13.7608 18.0701 13.7572 17.9954 13.7579C17.9195 13.7571 17.8436 13.7608 17.7681 13.7689C17.7183 13.7738 17.6692 13.785 17.6222 13.8022C17.5913 13.8125 17.5642 13.8318 17.5445 13.8576C17.5294 13.8807 17.5217 13.9077 17.5224 13.9352V19.4436C17.5222 19.4723 17.5316 19.5002 17.5492 19.523C17.5736 19.5514 17.6057 19.5722 17.6416 19.5831C17.6966 19.6022 17.7536 19.6148 17.8115 19.6209C17.9011 19.6306 17.9912 19.635 18.0813 19.6339C18.1714 19.635 18.2616 19.6306 18.3511 19.6209C18.4091 19.6148 18.4661 19.6021 18.5211 19.5831C18.5569 19.5722 18.589 19.5513 18.6135 19.523C18.631 19.5002 18.6404 19.4723 18.6403 19.4436V17.5865C18.728 17.6713 18.8205 17.7508 18.9175 17.8249C19.0013 17.8897 19.091 17.9466 19.1854 17.9949C19.2733 18.0399 19.3664 18.074 19.4625 18.0965C19.5663 18.1195 19.6723 18.1307 19.7785 18.1298C20.0339 18.1348 20.2869 18.0804 20.5177 17.9709C20.732 17.8654 20.9173 17.709 21.0572 17.5153C21.2108 17.2983 21.3227 17.0546 21.387 16.7966C21.4656 16.4869 21.5035 16.1682 21.4997 15.8487C21.4984 15.5638 21.4653 15.2799 21.4009 15.0024ZM20.2848 16.3725C20.257 16.5138 20.2085 16.6502 20.1407 16.7772C20.0805 16.8912 19.9952 16.9901 19.8913 17.0664C19.7833 17.1422 19.6536 17.1811 19.5217 17.1772C19.3605 17.1742 19.205 17.1173 19.08 17.0156C18.9127 16.8806 18.7629 16.7255 18.6338 16.5536V15.2536C18.7109 15.149 18.7952 15.05 18.8861 14.9571C18.9568 14.8849 19.0344 14.8199 19.1179 14.763C19.1859 14.7165 19.2603 14.6801 19.3388 14.6549C19.4097 14.633 19.4835 14.6218 19.5577 14.6217C19.6894 14.6168 19.8191 14.6548 19.9273 14.7298C20.0289 14.8057 20.1106 14.9048 20.1657 15.019C20.2291 15.1494 20.2724 15.2886 20.2941 15.4319C20.3196 15.592 20.3323 15.754 20.332 15.9161C20.3327 16.0697 20.3175 16.223 20.2867 16.3734L20.2848 16.3725ZM14.496 5.54755C14.4164 5.57853 14.3316 5.59349 14.2463 5.59153C14.1596 5.58991 14.0741 5.57087 13.9949 5.53554C13.9157 5.5002 13.8443 5.44932 13.7852 5.38588C13.7261 5.32244 13.6804 5.24772 13.6507 5.16624C13.621 5.08475 13.608 4.99813 13.6125 4.91152C13.6219 4.46501 13.7839 4.03519 14.0715 3.69349C14.359 3.35179 14.7549 3.11877 15.1933 3.03321C15.2287 3.02409 15.2635 3.01303 15.2977 3H15.8159C16.1439 3.06427 16.4543 3.19816 16.726 3.39265C16.963 3.56938 17.156 3.79836 17.2901 4.06177C17.4242 4.32519 17.4958 4.61595 17.4993 4.91152C17.5038 4.99805 17.4908 5.08458 17.4612 5.16601C17.4316 5.24744 17.3859 5.32211 17.3269 5.38554C17.2678 5.44896 17.1966 5.49987 17.1176 5.53525C17.0385 5.57064 16.9531 5.58979 16.8664 5.59153C16.7811 5.59349 16.6963 5.57853 16.6167 5.54755C16.5372 5.51656 16.4646 5.47014 16.4031 5.41097C16.3416 5.3518 16.2925 5.28104 16.2584 5.20278C16.2244 5.12451 16.2062 5.04027 16.2049 4.95494C16.2066 4.86814 16.1907 4.78189 16.1583 4.70135C16.1259 4.62082 16.0775 4.54764 16.0162 4.48617C15.9549 4.4247 15.8819 4.3762 15.8015 4.34356C15.721 4.31092 15.6348 4.29481 15.548 4.29619C15.4626 4.29703 15.3783 4.31478 15.2998 4.34841C15.2212 4.38204 15.1502 4.4309 15.0907 4.49214C15.0311 4.55339 14.9843 4.62581 14.9529 4.70524C14.9215 4.78468 14.9062 4.86955 14.9078 4.95494C14.9065 5.04027 14.8883 5.12451 14.8543 5.20278C14.8202 5.28104 14.7711 5.3518 14.7096 5.41097C14.6481 5.47014 14.5755 5.51656 14.496 5.54755ZM7.74754 9.54579C7.53509 9.54575 7.33109 9.62904 7.1794 9.77778C7.02772 9.92653 6.94047 10.1289 6.93636 10.3413C6.93465 10.448 6.95395 10.5539 6.99326 10.6531C7.03257 10.7523 7.0911 10.8428 7.16542 10.9193C7.23974 10.9959 7.32841 11.057 7.42639 11.0992C7.52438 11.1415 7.62974 11.1639 7.73643 11.1654C7.84303 11.1665 7.9488 11.1465 8.0477 11.1067C8.1466 11.0669 8.23668 11.008 8.31279 10.9333C8.3889 10.8587 8.44955 10.7698 8.49127 10.6717C8.53299 10.5736 8.55498 10.4682 8.55595 10.3616C8.55668 10.2549 8.53628 10.1491 8.49601 10.0503C8.45573 9.95143 8.39637 9.86154 8.32125 9.78573C8.24613 9.70993 8.15676 9.64967 8.0583 9.6085C7.95985 9.56732 7.85425 9.54603 7.74754 9.54579ZM10.2233 9.60771C10.3218 9.56682 10.4274 9.54579 10.534 9.54579C10.7466 9.54625 10.9505 9.63013 11.1019 9.77942C11.2532 9.92871 11.3399 10.1315 11.3433 10.3441C11.3447 10.4507 11.325 10.5566 11.2853 10.6557C11.2457 10.7547 11.1869 10.845 11.1123 10.9213C11.0377 10.9976 10.9488 11.0584 10.8507 11.1003C10.7526 11.1422 10.6471 11.1643 10.5405 11.1654C10.4338 11.1661 10.3282 11.1458 10.2294 11.1057C10.1306 11.0655 10.0408 11.0063 9.96493 10.9314C9.88908 10.8565 9.82874 10.7673 9.78736 10.6691C9.74598 10.5708 9.72436 10.4654 9.72375 10.3588C9.72339 10.2522 9.7441 10.1465 9.78465 10.0479C9.82521 9.94927 9.88481 9.85963 9.96008 9.7841C10.0354 9.70856 10.1248 9.6486 10.2233 9.60771ZM12.5112 10.3588C12.5126 10.5713 12.5973 10.7748 12.747 10.9256C12.8968 11.0764 13.0997 11.1625 13.3122 11.1654C13.4188 11.1662 13.5245 11.1461 13.6233 11.1061C13.7221 11.066 13.8121 11.0069 13.888 10.932C13.9639 10.8572 14.0244 10.7682 14.0659 10.67C14.1074 10.5718 14.1291 10.4663 14.1298 10.3597C14.1303 10.2531 14.1097 10.1474 14.0693 10.0487C14.0289 9.95007 13.9693 9.86034 13.8942 9.78472C13.819 9.7091 13.7296 9.64911 13.6312 9.6081C13.5327 9.5671 13.4271 9.54591 13.3205 9.54579C13.2139 9.54591 13.1084 9.56704 13.0101 9.60799C12.9117 9.64894 12.8224 9.70891 12.7472 9.78444C12.672 9.85996 12.6125 9.94955 12.572 10.0481C12.5315 10.1467 12.5108 10.2523 12.5112 10.3588ZM15.725 9.61115C15.823 9.56921 15.9283 9.547 16.0349 9.54579C16.1415 9.54482 16.2473 9.5649 16.3462 9.60489C16.445 9.64489 16.535 9.70401 16.611 9.77886C16.6869 9.8537 16.7474 9.94276 16.7888 10.041C16.8303 10.1393 16.852 10.2447 16.8526 10.3514C16.8529 10.4581 16.8323 10.5638 16.7917 10.6625C16.7512 10.7612 16.6915 10.8508 16.6163 10.9265C16.541 11.0021 16.4516 11.0621 16.3531 11.1031C16.2546 11.1441 16.149 11.1653 16.0423 11.1654C15.8298 11.1647 15.626 11.0807 15.4747 10.9315C15.3234 10.7822 15.2366 10.5796 15.233 10.3671C15.2316 10.2605 15.2513 10.1547 15.2909 10.0557C15.3305 9.95669 15.3892 9.86647 15.4637 9.79019C15.5381 9.71391 15.627 9.65309 15.725 9.61115ZM7.74015 12.3332C7.52772 12.3352 7.32457 12.4203 7.17427 12.5704C7.02397 12.7205 6.93853 12.9236 6.93636 13.1361C6.93563 13.2428 6.95598 13.3485 6.99619 13.4473C7.0364 13.5462 7.09571 13.6361 7.17072 13.7119C7.24572 13.7878 7.33492 13.8482 7.43327 13.8895C7.53162 13.9308 7.63719 13.9523 7.74387 13.9528C7.85047 13.9529 7.95606 13.932 8.05458 13.8913C8.1531 13.8506 8.24261 13.7909 8.31804 13.7155C8.39346 13.6402 8.45332 13.5507 8.49414 13.4523C8.53497 13.3538 8.55595 13.2483 8.55595 13.1417C8.55571 13.0349 8.53441 12.9293 8.49324 12.8308C8.45207 12.7324 8.39187 12.6431 8.31606 12.5679C8.24026 12.4928 8.15036 12.4334 8.05153 12.3931C7.95271 12.3528 7.84686 12.3325 7.74015 12.3332ZM10.2267 12.3937C10.3254 12.3533 10.431 12.3327 10.5377 12.3332C10.75 12.3347 10.9532 12.4192 11.1038 12.5688C11.2545 12.7184 11.3404 12.921 11.3433 13.1333C11.3443 13.24 11.3242 13.3458 11.2842 13.4447C11.2443 13.5437 11.1852 13.6337 11.1103 13.7097C11.0355 13.7858 10.9464 13.8463 10.8481 13.8879C10.7499 13.9294 10.6444 13.9511 10.5377 13.9519C10.4311 13.9522 10.3255 13.9316 10.2269 13.8911C10.1282 13.8506 10.0385 13.7911 9.96295 13.7159C9.88736 13.6408 9.82733 13.5514 9.78628 13.453C9.74524 13.3546 9.72399 13.2491 9.72375 13.1425C9.72387 13.0359 9.74505 12.9303 9.78606 12.8319C9.82706 12.7334 9.88705 12.6441 9.96267 12.5689C10.0383 12.4937 10.128 12.4342 10.2267 12.3937ZM6.93637 15.9364C6.93853 16.1488 7.02398 16.3519 7.17428 16.502C7.32458 16.6521 7.52773 16.7373 7.74015 16.7393C7.84684 16.7399 7.9526 16.7195 8.05137 16.6791C8.15014 16.6388 8.24001 16.5794 8.31579 16.5043C8.39157 16.4292 8.4518 16.3399 8.49302 16.2415C8.53424 16.1431 8.55559 16.0375 8.55595 15.9308C8.55608 15.8242 8.53516 15.7186 8.49437 15.6201C8.45359 15.5215 8.39377 15.432 8.31832 15.3567C8.24288 15.2813 8.15333 15.2216 8.05476 15.1809C7.95618 15.1402 7.85051 15.1194 7.74388 15.1197C7.63716 15.12 7.53157 15.1415 7.43317 15.1828C7.33476 15.2241 7.24547 15.2844 7.17044 15.3603C7.09541 15.4362 7.03608 15.5261 6.99591 15.625C6.95575 15.7239 6.93551 15.8297 6.93637 15.9364ZM10.2233 15.1825C10.3218 15.1416 10.4274 15.1206 10.534 15.1206C10.7466 15.1211 10.9505 15.205 11.1019 15.3542C11.2532 15.5035 11.3399 15.7063 11.3433 15.9188C11.3446 16.0255 11.3248 16.1313 11.2851 16.2303C11.2454 16.3293 11.1866 16.4195 11.112 16.4958C11.0375 16.5721 10.9486 16.6329 10.8505 16.6749C10.7525 16.7168 10.6471 16.739 10.5405 16.7402C10.4338 16.7409 10.3282 16.7206 10.2294 16.6805C10.1306 16.6403 10.0408 16.5811 9.96493 16.5062C9.88908 16.4313 9.82874 16.3422 9.78736 16.2439C9.74598 16.1457 9.72436 16.0402 9.72375 15.9336C9.72339 15.827 9.7441 15.7213 9.78465 15.6227C9.82521 15.5241 9.88481 15.4344 9.96008 15.3589C10.0354 15.2833 10.1248 15.2234 10.2233 15.1825Z" fill="url(#paint0_linear_3_948)"/>
</g>
<defs>
<linearGradient id="paint0_linear_3_948" x1="9.257" y1="5.07925" x2="14.1184" y2="20.8118" gradientUnits="userSpaceOnUse">
<stop stop-color="#00BCC8"/>
<stop offset="1" stop-color="#2787BD"/>
</linearGradient>
</defs>
</svg>
