<svg width="24" height="24" viewBox="0 0 24 24" fill="none" xmlns="http://www.w3.org/2000/svg">
<mask id="mask0_3_964" style="mask-type:alpha" maskUnits="userSpaceOnUse" x="0" y="0" width="24" height="24">
<rect width="24" height="24" rx="11.5" fill="#C4C4C4"/>
</mask>
<g mask="url(#mask0_3_964)">
<path fill-rule="evenodd" clip-rule="evenodd" d="M13.771 14.4312C14.7843 14.4184 15.7526 14.0108 16.47 13.295C17.1873 12.5793 17.5971 11.6119 17.6122 10.5986C17.6237 9.5165 17.6237 8.43689 17.6122 7.35985C17.6017 6.33991 17.1913 5.36483 16.4691 4.64447C15.747 3.92411 14.7709 3.51607 13.751 3.50812C11.1233 3.49729 8.49595 3.49729 5.86893 3.50812C4.99664 3.51389 4.15159 3.81276 3.46964 4.3567C2.78769 4.90063 2.30845 5.65803 2.10886 6.50719C2.0813 6.6213 2.05803 6.73584 2.03474 6.85052C2.02333 6.90666 2.01192 6.96282 2 7.01899V10.9223C2.01514 10.9643 2.02723 11.0074 2.03625 11.0512C2.15917 11.9755 2.60987 12.825 3.30623 13.4451C4.0026 14.0653 4.89836 14.4149 5.8307 14.4303C8.47682 14.4443 11.1236 14.4446 13.771 14.4312ZM5.98828 12.874C5.66703 12.8854 5.34688 12.8306 5.04768 12.7131C4.74848 12.5956 4.47666 12.4179 4.24905 12.1909C4.02143 11.9639 3.84288 11.6925 3.72455 11.3936C3.60622 11.0948 3.5506 10.7747 3.56114 10.4535V7.46872C3.55311 7.15069 3.60996 6.83437 3.72816 6.53901C3.84636 6.24366 4.02348 5.97544 4.2487 5.75075C4.47392 5.52607 4.74249 5.34958 5.03812 5.23208C5.33376 5.11459 5.65022 5.05854 5.96823 5.06733H13.6555C13.9715 5.0598 14.2857 5.11632 14.5793 5.23348C14.8729 5.35064 15.1398 5.52603 15.3639 5.74906C15.5879 5.97209 15.7644 6.23812 15.8829 6.5312C16.0013 6.82428 16.0592 7.13833 16.053 7.45438V10.4783C16.059 10.7942 16.0011 11.1081 15.8826 11.401C15.7642 11.694 15.5877 11.96 15.3639 12.183C15.14 12.406 14.8733 12.5814 14.5799 12.6987C14.2865 12.8159 13.9723 12.8726 13.6564 12.8653H9.79322L5.98828 12.874ZM21.9797 13.6072C21.9816 12.8763 21.7733 12.1602 21.3797 11.5444C20.9861 10.9285 20.4238 10.4388 19.7596 10.1336C19.6681 10.0801 19.5666 10.0459 19.4614 10.033C19.3561 10.0202 19.2494 10.0291 19.1477 10.059C19.046 10.089 18.9515 10.1394 18.8701 10.2072C18.7886 10.2751 18.7219 10.3589 18.674 10.4535C18.6255 10.5496 18.5973 10.6546 18.5912 10.762C18.585 10.8695 18.601 10.9771 18.6381 11.0781C18.6753 11.1791 18.7328 11.2714 18.8071 11.3492C18.8815 11.427 18.9711 11.4887 19.0703 11.5305C19.4904 11.7231 19.8436 12.0365 20.0849 12.4307C20.3262 12.8249 20.4447 13.282 20.4252 13.7438V16.6903C20.437 17.0117 20.3825 17.332 20.2652 17.6314C20.148 17.9309 19.9704 18.203 19.7434 18.4308C19.5165 18.6587 19.2452 18.8373 18.9462 18.9558C18.6472 19.0743 18.327 19.13 18.0056 19.1194H10.3566C10.2331 19.1223 10.1096 19.1159 9.98707 19.1003C9.41949 19.0305 8.89713 18.7552 8.51871 18.3265C8.14029 17.8977 7.93201 17.3452 7.93325 16.7734C7.93263 16.6706 7.91173 16.569 7.87171 16.4743C7.83169 16.3797 7.77331 16.2939 7.70003 16.2218C7.62674 16.1498 7.53998 16.0929 7.44466 16.0545C7.34933 16.0161 7.24729 15.997 7.14453 15.9981C7.04175 15.9983 6.94009 16.019 6.84545 16.0591C6.7508 16.0992 6.66515 16.1578 6.59345 16.2314C6.52176 16.3051 6.46546 16.3923 6.42795 16.488C6.39044 16.5837 6.37249 16.6859 6.37503 16.7886C6.3748 17.0095 6.39421 17.23 6.43319 17.4475C6.59123 18.3668 7.07397 19.1989 7.79362 19.7924C8.51327 20.3859 9.42209 20.7013 10.3547 20.6815H14.1797C14.6256 20.6815 15.0709 20.6828 15.5157 20.6842C16.4042 20.687 17.2911 20.6897 18.1794 20.6815C19.1787 20.6576 20.1307 20.2507 20.8385 19.5448C21.5463 18.839 21.9558 17.8882 21.9825 16.8889L21.9834 16.8221C21.9984 15.7483 22.0133 14.6764 21.9797 13.6072ZM17.5338 17.3349C17.386 17.1902 17.3016 16.9927 17.2991 16.7858C17.2973 16.5791 17.3776 16.3802 17.5222 16.2326C17.6668 16.0849 17.8639 16.0006 18.0706 15.9981C18.2774 15.996 18.4766 16.0761 18.6244 16.2207C18.7723 16.3654 18.8568 16.5627 18.8593 16.7695C18.8611 16.9763 18.7809 17.1754 18.6363 17.3232C18.4917 17.471 18.2945 17.5555 18.0878 17.5583C17.8809 17.56 17.6816 17.4797 17.5338 17.3349ZM14.0861 8.08647C14.2376 8.00765 14.358 7.87969 14.4273 7.72358C14.4967 7.56747 14.5111 7.39243 14.468 7.22711C14.4298 7.05427 14.3327 6.9001 14.1934 6.79091C14.0541 6.68171 13.8811 6.62425 13.7041 6.62843H9.80279H5.92139C5.81701 6.62584 5.71318 6.64439 5.61613 6.68292C5.51909 6.72144 5.43087 6.77915 5.35668 6.85262C5.28249 6.9261 5.22388 7.01383 5.18441 7.1105C5.14495 7.20717 5.12538 7.31083 5.12695 7.41523C5.12731 7.51798 5.14822 7.61963 5.18826 7.71426C5.2283 7.80888 5.28669 7.89456 5.36018 7.96636C5.43367 8.03817 5.52072 8.09463 5.61625 8.13245C5.71178 8.17028 5.81389 8.18874 5.91661 8.18671H13.6993C13.8341 8.18254 13.9663 8.14831 14.0861 8.08647ZM13.1575 9.98244C13.3032 9.83567 13.5012 9.75268 13.708 9.75167C13.9148 9.75116 14.1133 9.83272 14.2601 9.97842C14.4069 10.1241 14.4899 10.3221 14.4909 10.5289C14.4912 10.7357 14.4096 10.9341 14.264 11.0808C14.1183 11.2275 13.9204 11.3106 13.7137 11.3118C13.507 11.3121 13.3085 11.2305 13.1618 11.0848C13.0151 10.9392 12.9321 10.7414 12.9308 10.5346C12.9303 10.3278 13.0118 10.1292 13.1575 9.98244Z" fill="url(#paint0_linear_3_964)"/>
</g>
<defs>
<linearGradient id="paint0_linear_3_964" x1="8.39666" y1="5.64837" x2="13.1233" y2="22.0978" gradientUnits="userSpaceOnUse">
<stop stop-color="#00BCC8"/>
<stop offset="1" stop-color="#2787BD"/>
</linearGradient>
</defs>
</svg>
