<svg width="8" height="5" viewBox="0 0 8 5" fill="none" xmlns="http://www.w3.org/2000/svg">
<path d="M0.220264 0.28038C0.0703397 0.449563 -0.00837898 0.670154 0.000566483 0.896031C0.00951195 1.12191 0.10543 1.33558 0.268265 1.49238L3.09226 4.32338C3.25426 4.48399 3.47315 4.5741 3.70126 4.5741C3.92938 4.5741 4.14827 4.48399 4.31026 4.32338L7.13526 1.49838C7.29676 1.34083 7.39175 1.12738 7.40068 0.901941C7.4096 0.676499 7.3318 0.456207 7.18326 0.28638C7.10466 0.200195 7.00941 0.13082 6.90327 0.082438C6.79713 0.0340557 6.68229 0.00766706 6.56567 0.00486374C6.44906 0.00206041 6.33308 0.0229001 6.22474 0.0661268C6.11639 0.109354 6.01792 0.174072 5.93526 0.25638L4.12526 2.06638C4.01302 2.17692 3.8618 2.23888 3.70426 2.23888C3.54673 2.23888 3.39551 2.17692 3.28326 2.06638L1.47326 0.25638C1.39079 0.17317 1.29228 0.107561 1.18371 0.0635247C1.07514 0.0194883 0.958766 -0.00206041 0.841628 0.000183105C0.724489 0.00242662 0.609023 0.0284157 0.50222 0.0765777C0.395416 0.12474 0.299496 0.194072 0.220264 0.28038Z" fill="#2787BD"/>
</svg>
