<svg width="26" height="26" viewBox="0 0 26 26" fill="none" xmlns="http://www.w3.org/2000/svg">
<path d="M19.9056 25.9969H6.09335C4.47777 25.9942 2.92916 25.3511 1.78696 24.2085C0.644754 23.0659 0.00215187 21.5171 0 19.9015L0 11.3566C0.00292532 10.4197 0.220573 9.49603 0.636219 8.65645C1.05187 7.81687 1.65445 7.08374 2.39767 6.5134L9.30482 1.24606C10.3673 0.43771 11.6655 0 13.0005 0C14.3355 0 15.6337 0.43771 16.6962 1.24606L18.8904 2.91843V1.62245C18.8904 1.35265 18.9976 1.09391 19.1884 0.90314C19.3791 0.712368 19.6379 0.605193 19.9077 0.605193C20.1775 0.605193 20.4362 0.712368 20.627 0.90314C20.8177 1.09391 20.9249 1.35265 20.9249 1.62245V4.96921C20.9238 5.15761 20.8704 5.34199 20.7706 5.50181C20.6708 5.66163 20.5286 5.7906 20.3599 5.87434C20.1911 5.95809 20.0024 5.99333 19.8148 5.97613C19.6272 5.95892 19.448 5.88996 19.2973 5.77691L15.4623 2.86146C14.7539 2.32256 13.8885 2.03075 12.9985 2.03075C12.1085 2.03075 11.243 2.32256 10.5347 2.86146L3.62956 8.1288C3.1348 8.50924 2.73379 8.99797 2.45729 9.55749C2.18079 10.117 2.03616 10.7324 2.03451 11.3566V19.9015C2.0345 20.9789 2.46181 22.0123 3.2227 22.7751C3.98359 23.5379 5.01594 23.9678 6.09335 23.9705H19.9056C20.9837 23.9689 22.0171 23.5395 22.7789 22.7766C23.5407 22.0136 23.9685 20.9796 23.9685 19.9015V11.3566C23.9704 10.7314 23.8288 10.1142 23.5548 9.55236C23.2807 8.99051 22.8815 8.49899 22.3877 8.11558C22.2734 8.03784 22.1762 7.93761 22.1019 7.82103C22.0276 7.70445 21.9779 7.57396 21.9558 7.43752C21.9336 7.30108 21.9395 7.16155 21.973 7.02746C22.0066 6.89337 22.0672 6.76753 22.151 6.65762C22.2348 6.5477 22.3401 6.45602 22.4606 6.38818C22.581 6.32033 22.714 6.27774 22.8514 6.26301C22.9889 6.24828 23.1279 6.26171 23.26 6.30249C23.392 6.34326 23.5144 6.41053 23.6196 6.50018C24.3613 7.07376 24.9616 7.8098 25.3742 8.65171C25.7869 9.49361 26.001 10.4189 26 11.3566V19.9015C25.9978 21.5172 25.3551 23.0662 24.2127 24.2088C23.0703 25.3514 21.5214 25.9944 19.9056 25.9969ZM10.969 11.7278C10.718 11.7278 10.4725 11.8023 10.2637 11.9418C10.055 12.0813 9.89224 12.2796 9.79615 12.5116C9.70007 12.7435 9.67493 12.9988 9.72391 13.2451C9.7729 13.4913 9.89381 13.7175 10.0714 13.8951C10.2489 14.0726 10.4751 14.1935 10.7214 14.2425C10.9676 14.2915 11.2229 14.2664 11.4549 14.1703C11.6869 14.0742 11.8851 13.9115 12.0246 13.7027C12.1641 13.4939 12.2386 13.2485 12.2386 12.9974C12.2386 12.6607 12.1048 12.3378 11.8667 12.0997C11.6287 11.8616 11.3058 11.7278 10.969 11.7278ZM16.3015 12.9974C16.3015 13.3346 16.1675 13.658 15.9291 13.8965C15.6906 14.135 15.3672 14.2689 15.0299 14.2689C14.6927 14.2689 14.3693 14.135 14.1308 13.8965C13.8923 13.658 13.7584 13.3346 13.7584 12.9974C13.7584 12.6603 13.8923 12.337 14.1306 12.0986C14.369 11.8602 14.6923 11.7263 15.0294 11.7263C15.3665 11.7263 15.6898 11.8602 15.9282 12.0986C16.1666 12.337 16.3005 12.6603 16.3005 12.9974H16.3015ZM12.2386 17.0603C12.2386 17.3975 12.1046 17.721 11.8661 17.9594C11.6277 18.1979 11.3043 18.3319 10.967 18.3319C10.6298 18.3319 10.3063 18.1979 10.0679 17.9594C9.82942 17.721 9.69545 17.3975 9.69545 17.0603C9.69538 16.8933 9.7282 16.7279 9.79205 16.5736C9.85589 16.4193 9.94949 16.2791 10.0675 16.161C10.3059 15.9225 10.6293 15.7884 10.9665 15.7882C11.3037 15.7881 11.6272 15.9219 11.8658 16.1603C11.9839 16.2783 12.0776 16.4185 12.1416 16.5727C12.2056 16.727 12.2385 16.8923 12.2386 17.0593V17.0603ZM16.3015 17.0603C16.3015 17.3975 16.1675 17.721 15.9291 17.9594C15.6906 18.1979 15.3672 18.3319 15.0299 18.3319C14.6927 18.3319 14.3693 18.1979 14.1308 17.9594C13.8923 17.721 13.7584 17.3975 13.7584 17.0603C13.7582 16.7232 13.892 16.3998 14.1303 16.1614C14.3686 15.9229 14.6918 15.7889 15.0289 15.7887C15.366 15.7886 15.6894 15.9224 15.9278 16.1607C16.1663 16.3989 16.3003 16.7222 16.3005 17.0593L16.3015 17.0603Z" fill="#2787BD"/>
</svg>
