<svg width="20" height="13" viewBox="0 0 20 13" fill="none" xmlns="http://www.w3.org/2000/svg">
<path d="M19.7547 2.20803C19.756 2.0323 19.7361 1.85707 19.6956 1.68606C19.6042 1.30178 19.3814 0.961529 19.0657 0.724146C18.75 0.486763 18.3611 0.367125 17.9666 0.386012C15.2706 0.386012 12.5746 0.386012 9.87857 0.386012C7.18257 0.386012 4.49367 0.386012 1.81167 0.386012C1.57111 0.371544 1.33019 0.408216 1.10477 0.493433C0.879336 0.578651 0.674405 0.710532 0.503569 0.880518C0.332733 1.0505 0.199773 1.25464 0.113432 1.47964C0.0270912 1.70464 -0.010675 1.94543 0.00259225 2.18606C0.00259225 5.06539 0.00259225 7.94436 0.00259225 10.823C-0.00835796 11.0617 0.0308227 11.3001 0.117582 11.5227C0.204342 11.7454 0.336806 11.9474 0.506376 12.1157C0.675947 12.2841 0.878942 12.415 1.1022 12.5001C1.32546 12.5853 1.56403 12.6227 1.80264 12.61H17.9577C18.198 12.6226 18.4382 12.5845 18.6627 12.4981C18.8873 12.4116 19.0912 12.2788 19.261 12.1083C19.4308 11.9378 19.5628 11.7335 19.6483 11.5086C19.7339 11.2837 19.7711 11.0433 19.7576 10.803C19.7583 7.93834 19.7573 5.07337 19.7547 2.20803ZM18.2757 9.24002C18.0011 9.18015 17.7161 9.1858 17.4441 9.25649C17.1721 9.32718 16.9206 9.46101 16.7099 9.647C16.4991 9.83298 16.3352 10.0659 16.2312 10.3271C16.1273 10.5882 16.0863 10.8701 16.1116 11.15H3.50064C3.43864 9.72605 2.73662 9.0171 1.48562 9.1221V3.88601C1.76032 3.92745 2.04096 3.90329 2.30447 3.81533C2.56799 3.72738 2.80688 3.57816 3.00162 3.38003C3.19623 3.18204 3.3414 2.94093 3.42532 2.67629C3.50925 2.41166 3.52959 2.13104 3.48465 1.85708H16.1676C16.0999 2.14659 16.1072 2.4486 16.1887 2.73452C16.2703 3.02044 16.4233 3.28074 16.6336 3.49099C16.844 3.70358 17.1056 3.85859 17.3931 3.94107C17.6806 4.02354 17.9845 4.03078 18.2757 3.96206V9.24002Z" fill="#2787BD"/>
<path d="M9.96659 10.244H9.91659C9.42731 10.2388 8.94405 10.1355 8.4954 9.94016C8.04675 9.74486 7.64183 9.46157 7.30459 9.10702C6.79172 8.57877 6.44598 7.91101 6.31063 7.18729C6.17528 6.46356 6.25633 5.71599 6.54363 5.03808C6.83093 4.36018 7.31173 3.78203 7.92589 3.37595C8.54006 2.96987 9.26032 2.75389 9.99659 2.75502H10.0476C11.0323 2.77763 11.9684 3.18723 12.6532 3.89512C13.338 4.603 13.7164 5.55216 13.7064 6.53704C13.6964 7.52192 13.2989 8.46321 12.5998 9.15705C11.9008 9.85088 10.9565 10.2414 9.97159 10.244H9.96659ZM10.4666 5.59902V8.81302H11.1886V7.72902C11.2535 7.80456 11.3343 7.86474 11.4253 7.9052C11.5162 7.94567 11.6151 7.96542 11.7146 7.96302C11.8423 7.96678 11.9689 7.93933 12.0836 7.88304C12.1983 7.82675 12.2975 7.74334 12.3726 7.64002C12.5457 7.38627 12.6311 7.08283 12.6156 6.77602V6.74202C12.6322 6.43426 12.5487 6.12939 12.3776 5.87302C12.3013 5.77052 12.2014 5.68804 12.0862 5.63266C11.9711 5.57727 11.8443 5.55063 11.7166 5.55502C11.6116 5.55229 11.5074 5.57421 11.4124 5.61901C11.3174 5.66382 11.2343 5.73026 11.1696 5.81302L11.1476 5.59902H10.4666ZM8.32059 6.81502H8.72759L9.27959 7.92002H10.0866V7.88802L9.43359 6.62702C9.60283 6.55429 9.74684 6.43324 9.84759 6.27902C9.94099 6.11482 9.9867 5.9278 9.97959 5.73902C9.98681 5.60587 9.96217 5.47291 9.90774 5.35118C9.85331 5.22944 9.77064 5.12243 9.66659 5.03902C9.41298 4.86124 9.1068 4.77421 8.79759 4.79202H7.56759V7.92002H8.32059V6.82002V6.81502ZM11.5426 7.40602C11.4719 7.4123 11.401 7.39727 11.339 7.36287C11.277 7.32847 11.2267 7.27628 11.1946 7.21302V6.29902C11.2262 6.23676 11.2761 6.18566 11.3376 6.15259C11.3991 6.11951 11.4692 6.10606 11.5386 6.11402C11.7776 6.11402 11.8986 6.32202 11.8986 6.73202V6.80902C11.8906 7.20502 11.7706 7.40602 11.5426 7.40602ZM8.79759 6.23602H8.32059V5.37602H8.79759C8.8563 5.37185 8.91524 5.37992 8.97067 5.39971C9.0261 5.41951 9.07681 5.4506 9.11959 5.49102C9.19614 5.57828 9.23529 5.69214 9.22859 5.80802C9.23536 5.92313 9.19657 6.03628 9.12059 6.12302C9.07736 6.16296 9.02638 6.1936 8.97082 6.21304C8.91526 6.23248 8.8563 6.2403 8.79759 6.23602Z" fill="#2787BD"/>
<path d="M4.54653 5.64801C4.40892 5.64801 4.2727 5.67525 4.14565 5.72809C4.01859 5.78093 3.90331 5.85829 3.80629 5.95587C3.70927 6.05345 3.63245 6.16933 3.58034 6.29669C3.52823 6.42405 3.50179 6.56045 3.50258 6.69806C3.50522 6.9723 3.61651 7.23425 3.81203 7.42657C4.00754 7.6189 4.2713 7.72593 4.54555 7.72406C4.68135 7.72446 4.81595 7.69787 4.94142 7.64594C5.0669 7.594 5.18072 7.5177 5.27651 7.42145C5.3723 7.32519 5.44808 7.21087 5.49941 7.08514C5.55073 6.95942 5.57664 6.82482 5.57558 6.68903C5.57637 6.55311 5.55033 6.41829 5.49904 6.29242C5.44776 6.16654 5.37218 6.05205 5.27663 5.95538C5.18108 5.85872 5.06743 5.78181 4.94216 5.72906C4.81688 5.67632 4.68244 5.6488 4.54653 5.64801Z" fill="#2787BD"/>
<path d="M15.4506 5.64902C15.1728 5.6506 14.907 5.76227 14.7113 5.95944C14.5156 6.15662 14.406 6.42323 14.4065 6.70102C14.411 6.97519 14.5234 7.23658 14.7195 7.42831C14.9155 7.62005 15.1793 7.72668 15.4535 7.72507C15.5893 7.72521 15.7239 7.69839 15.8492 7.64621C15.9746 7.59403 16.0884 7.51743 16.184 7.42099C16.2796 7.32455 16.355 7.21014 16.4061 7.08432C16.4572 6.9585 16.4829 6.82387 16.4816 6.68808C16.4821 6.41374 16.3739 6.15027 16.1807 5.95554C15.9874 5.7608 15.7249 5.6506 15.4506 5.64902Z" fill="#2787BD"/>
</svg>
