<svg width="20" height="13" viewBox="0 0 20 13" fill="none" xmlns="http://www.w3.org/2000/svg">
<path d="M19.7547 2.20803C19.756 2.0323 19.7361 1.85707 19.6956 1.68606C19.6042 1.30178 19.3814 0.961529 19.0657 0.724146C18.75 0.486763 18.3611 0.367125 17.9666 0.386012C15.2706 0.386012 12.5746 0.386012 9.87857 0.386012C7.18257 0.386012 4.49367 0.386012 1.81167 0.386012C1.57111 0.371544 1.33019 0.408216 1.10477 0.493433C0.879336 0.578651 0.674405 0.710532 0.503569 0.880518C0.332733 1.0505 0.199773 1.25464 0.113432 1.47964C0.0270912 1.70464 -0.010675 1.94543 0.00259225 2.18606C0.00259225 5.06539 0.00259225 7.94436 0.00259225 10.823C-0.00835796 11.0617 0.0308227 11.3001 0.117582 11.5227C0.204342 11.7454 0.336806 11.9474 0.506376 12.1157C0.675947 12.2841 0.878942 12.415 1.1022 12.5001C1.32546 12.5853 1.56403 12.6227 1.80264 12.61H17.9577C18.198 12.6226 18.4382 12.5845 18.6627 12.4981C18.8873 12.4116 19.0912 12.2788 19.261 12.1083C19.4308 11.9378 19.5628 11.7335 19.6483 11.5086C19.7339 11.2837 19.7711 11.0433 19.7576 10.803C19.7583 7.93834 19.7573 5.07337 19.7547 2.20803ZM18.2757 9.24002C18.0011 9.18015 17.7161 9.1858 17.4441 9.25649C17.1721 9.32718 16.9206 9.46101 16.7099 9.647C16.4991 9.83298 16.3352 10.0659 16.2312 10.3271C16.1273 10.5882 16.0863 10.8701 16.1116 11.15H3.50064C3.43864 9.72605 2.73662 9.0171 1.48562 9.1221V3.88601C1.76032 3.92745 2.04096 3.90329 2.30447 3.81533C2.56799 3.72738 2.80688 3.57816 3.00162 3.38003C3.19623 3.18204 3.3414 2.94093 3.42532 2.67629C3.50925 2.41166 3.52959 2.13104 3.48465 1.85708H16.1676C16.0999 2.14659 16.1072 2.4486 16.1887 2.73452C16.2703 3.02044 16.4233 3.28074 16.6336 3.49099C16.844 3.70358 17.1056 3.85859 17.3931 3.94107C17.6806 4.02354 17.9845 4.03078 18.2757 3.96206V9.24002Z" fill="#2787BD"/>
<path d="M9.96462 10.244H9.91662C9.42714 10.2385 8.94373 10.135 8.49493 9.9395C8.04614 9.74405 7.64106 9.46064 7.30362 9.10603C6.79074 8.57777 6.44501 7.91001 6.30966 7.18629C6.17431 6.46256 6.25535 5.71499 6.54265 5.03708C6.82995 4.35918 7.31075 3.78103 7.92492 3.37495C8.53908 2.96887 9.25935 2.75289 9.99562 2.75403H10.0466C10.5384 2.75941 11.0243 2.86161 11.4766 3.05479C11.929 3.24796 12.3388 3.52834 12.6827 3.8799C13.0267 4.23146 13.298 4.64733 13.4812 5.10375C13.6645 5.56018 13.756 6.04822 13.7506 6.54003C13.7452 7.03183 13.643 7.51775 13.4499 7.97005C13.2567 8.42236 12.9763 8.83218 12.6247 9.17613C12.2732 9.52008 11.8573 9.79141 11.4009 9.97464C10.9445 10.1579 10.4564 10.2494 9.96462 10.244ZM10.0786 7.54402C9.94362 7.54402 9.91962 7.65102 9.84862 7.96702C9.84891 7.97235 9.84891 7.9777 9.84862 7.98303C9.84534 7.99241 9.84534 8.00264 9.84862 8.01202C9.85862 8.03603 9.86762 8.06402 9.87662 8.09102C9.89662 8.15602 9.91762 8.22302 9.95962 8.24102C10.1521 8.3248 10.3534 8.38685 10.5596 8.42602C10.7446 8.46002 10.8056 8.53202 10.8006 8.71502C10.7956 8.89803 10.8006 8.97403 10.8406 9.01503C10.8806 9.05603 10.9736 9.06003 11.1356 9.06003C11.2976 9.06003 11.3866 9.06003 11.4286 9.01403C11.4706 8.96803 11.4686 8.89003 11.4606 8.72703C11.4516 8.68307 11.4515 8.63776 11.4602 8.59374C11.4689 8.54972 11.4862 8.50788 11.5113 8.47064C11.5363 8.43341 11.5685 8.40154 11.606 8.37688C11.6435 8.35222 11.6855 8.33527 11.7296 8.32702C11.8978 8.27209 12.0501 8.177 12.1733 8.04998C12.2965 7.92296 12.3869 7.76783 12.4366 7.59802C12.5155 7.34343 12.5011 7.06907 12.3961 6.82409C12.2911 6.57911 12.1024 6.37951 11.8636 6.26103C11.7126 6.18003 11.5536 6.10803 11.3996 6.03903C11.2686 5.98003 11.1356 5.92003 11.0086 5.85503C10.8206 5.75503 10.7466 5.62903 10.7876 5.46703C10.8048 5.39064 10.8487 5.32289 10.9114 5.27597C10.9741 5.22904 11.0515 5.20602 11.1296 5.21103H11.1776C11.437 5.24557 11.6938 5.29667 11.9466 5.36403L11.9756 5.37103C12.0033 5.37892 12.0318 5.38361 12.0606 5.38503C12.1086 5.38503 12.1436 5.35903 12.1726 5.30103C12.3006 5.04203 12.3316 4.88503 12.2786 4.77603C12.2256 4.66703 12.0786 4.59703 11.8016 4.53903H11.7916H11.7786C11.7336 4.54286 11.6884 4.53727 11.6457 4.52264C11.603 4.50801 11.5638 4.48464 11.5306 4.45403C11.5037 4.41809 11.4847 4.37692 11.4747 4.33317C11.4647 4.28942 11.464 4.24406 11.4726 4.20003C11.4786 4.12503 11.4416 3.98203 11.4076 3.97803C11.3154 3.96276 11.2221 3.95473 11.1286 3.95403C11.0555 3.95353 10.9825 3.95989 10.9106 3.97303C10.8656 3.98203 10.8296 4.16003 10.8366 4.25003C10.8468 4.29082 10.8484 4.3333 10.8411 4.37473C10.8339 4.41615 10.818 4.45559 10.7945 4.49047C10.771 4.52536 10.7405 4.55493 10.7048 4.57724C10.6692 4.59956 10.6293 4.61414 10.5876 4.62003C10.5338 4.63605 10.4823 4.65926 10.4346 4.68903L10.4166 4.69903C10.2532 4.78502 10.1147 4.91177 10.0147 5.067C9.91466 5.22223 9.85642 5.40067 9.84562 5.58503C9.84047 5.76763 9.88329 5.94839 9.96979 6.10929C10.0563 6.27019 10.1835 6.4056 10.3386 6.50203C10.4662 6.58281 10.5999 6.65337 10.7386 6.71303L10.8796 6.77903C10.9386 6.80802 11.0006 6.83402 11.0606 6.86002C11.1476 6.89703 11.2356 6.93502 11.3186 6.98002C11.3983 7.01192 11.4652 7.06942 11.5086 7.14346C11.552 7.2175 11.5696 7.30389 11.5586 7.38903C11.5519 7.47535 11.513 7.556 11.4497 7.61506C11.3864 7.67412 11.3032 7.70729 11.2166 7.70802H11.1166C10.8878 7.71316 10.6593 7.68691 10.4376 7.63002L10.3876 7.61602C10.2876 7.58119 10.1839 7.55804 10.0786 7.54703V7.54402ZM7.51062 6.98303C7.51049 7.16689 7.55293 7.3483 7.63462 7.51302C7.7119 7.67534 7.83184 7.8136 7.98162 7.91302C8.13184 8.01141 8.30806 8.0626 8.48762 8.06003C8.61599 8.06459 8.74393 8.04271 8.86349 7.99575C8.98305 7.94878 9.09167 7.87774 9.18262 7.78702C9.27189 7.69278 9.34128 7.58152 9.38663 7.45988C9.43199 7.33824 9.45239 7.20872 9.44662 7.07902C9.46154 6.89879 9.42182 6.71825 9.33263 6.56092C9.24344 6.40359 9.10893 6.27679 8.94662 6.19703C8.83522 6.1441 8.71902 6.10191 8.59962 6.07103C8.49512 6.04877 8.39721 6.00256 8.31362 5.93603C8.284 5.90923 8.2606 5.87628 8.24505 5.83948C8.2295 5.80269 8.22219 5.76294 8.22362 5.72303C8.22075 5.64466 8.24713 5.56803 8.29762 5.50803C8.31925 5.48085 8.34679 5.45898 8.37816 5.44407C8.40953 5.42917 8.44389 5.42163 8.47862 5.42203C8.66462 5.42203 8.75862 5.55003 8.75862 5.80303H9.44762C9.46207 5.52934 9.36956 5.26075 9.18962 5.05403C9.09972 4.95979 8.99083 4.88574 8.87015 4.83678C8.74947 4.78781 8.61976 4.76506 8.48962 4.77003C8.36604 4.766 8.24309 4.78927 8.12953 4.83819C8.01597 4.8871 7.91459 4.96046 7.83262 5.05303C7.66158 5.25264 7.57197 5.50933 7.58162 5.77203C7.57876 5.92194 7.60844 6.07069 7.66862 6.20803C7.72731 6.33464 7.81501 6.44564 7.92462 6.53203C8.05186 6.62863 8.1955 6.70147 8.34862 6.74703C8.47322 6.77909 8.59131 6.83255 8.69762 6.90503C8.7272 6.92913 8.75087 6.95969 8.76682 6.99435C8.78276 7.02902 8.79056 7.06688 8.78962 7.10502C8.79283 7.18216 8.76796 7.25783 8.71962 7.31803C8.69273 7.34648 8.65985 7.36861 8.62335 7.38279C8.58686 7.39697 8.54767 7.40286 8.50862 7.40002C8.46215 7.40157 8.41585 7.39349 8.37266 7.37628C8.32946 7.35907 8.29029 7.33311 8.25762 7.30002C8.18565 7.2095 8.15 7.09542 8.15762 6.98002H7.51062V6.98303Z" fill="#2787BD"/>
<path d="M4.54653 5.64802C4.40892 5.64802 4.2727 5.67526 4.14565 5.7281C4.01859 5.78094 3.90331 5.8583 3.80629 5.95588C3.70927 6.05346 3.63245 6.16934 3.58034 6.2967C3.52823 6.42406 3.50179 6.56046 3.50258 6.69807C3.50522 6.97231 3.61651 7.23425 3.81203 7.42658C4.00754 7.61891 4.2713 7.72593 4.54555 7.72407C4.68135 7.72447 4.81595 7.69788 4.94142 7.64594C5.0669 7.59401 5.18072 7.51771 5.27651 7.42146C5.3723 7.3252 5.44808 7.21087 5.49941 7.08515C5.55073 6.95943 5.57664 6.82483 5.57558 6.68903C5.57637 6.55311 5.55033 6.4183 5.49904 6.29243C5.44776 6.16655 5.37218 6.05206 5.27663 5.95539C5.18108 5.85872 5.06743 5.78181 4.94216 5.72907C4.81688 5.67633 4.68244 5.6488 4.54653 5.64802Z" fill="#2787BD"/>
<path d="M15.4506 5.64902C15.1728 5.6506 14.907 5.76227 14.7113 5.95944C14.5156 6.15662 14.406 6.42323 14.4065 6.70102C14.411 6.97519 14.5234 7.23658 14.7195 7.42831C14.9155 7.62005 15.1793 7.72668 15.4535 7.72507C15.5893 7.72521 15.7239 7.69839 15.8492 7.64621C15.9746 7.59403 16.0884 7.51743 16.184 7.42099C16.2796 7.32455 16.355 7.21014 16.4061 7.08432C16.4572 6.9585 16.4829 6.82387 16.4816 6.68808C16.4821 6.41374 16.3739 6.15027 16.1807 5.95554C15.9874 5.7608 15.7249 5.6506 15.4506 5.64902Z" fill="#2787BD"/>
</svg>
