<svg width="20" height="13" viewBox="0 0 20 13" fill="none" xmlns="http://www.w3.org/2000/svg">
<path d="M19.7547 2.20803C19.756 2.0323 19.7361 1.85707 19.6956 1.68606C19.6042 1.30178 19.3814 0.961529 19.0657 0.724146C18.75 0.486763 18.3611 0.367125 17.9666 0.386012C15.2706 0.386012 12.5746 0.386012 9.87857 0.386012C7.18257 0.386012 4.49367 0.386012 1.81167 0.386012C1.57111 0.371544 1.33019 0.408216 1.10477 0.493433C0.879336 0.578651 0.674405 0.710532 0.503569 0.880518C0.332733 1.0505 0.199773 1.25464 0.113432 1.47964C0.0270912 1.70464 -0.010675 1.94543 0.00259225 2.18606C0.00259225 5.06539 0.00259225 7.94436 0.00259225 10.823C-0.00835796 11.0617 0.0308227 11.3001 0.117582 11.5227C0.204342 11.7454 0.336806 11.9474 0.506376 12.1157C0.675947 12.2841 0.878942 12.415 1.1022 12.5001C1.32546 12.5853 1.56403 12.6227 1.80264 12.61H17.9577C18.198 12.6226 18.4382 12.5845 18.6627 12.4981C18.8873 12.4116 19.0912 12.2788 19.261 12.1083C19.4308 11.9378 19.5628 11.7335 19.6483 11.5086C19.7339 11.2837 19.7711 11.0433 19.7576 10.803C19.7583 7.93834 19.7573 5.07337 19.7547 2.20803ZM18.2757 9.24002C18.0011 9.18015 17.7161 9.1858 17.4441 9.25649C17.1721 9.32718 16.9206 9.46101 16.7099 9.647C16.4991 9.83298 16.3352 10.0659 16.2312 10.3271C16.1273 10.5882 16.0863 10.8701 16.1116 11.15H3.50064C3.43864 9.72605 2.73662 9.0171 1.48562 9.1221V3.88601C1.76032 3.92745 2.04096 3.90329 2.30447 3.81533C2.56799 3.72738 2.80688 3.57816 3.00162 3.38003C3.19623 3.18204 3.3414 2.94093 3.42532 2.67629C3.50925 2.41166 3.52959 2.13104 3.48465 1.85708H16.1676C16.0999 2.14659 16.1072 2.4486 16.1887 2.73452C16.2703 3.02044 16.4233 3.28074 16.6336 3.49099C16.844 3.70358 17.1056 3.85859 17.3931 3.94107C17.6806 4.02354 17.9845 4.03078 18.2757 3.96206V9.24002Z" fill="#2787BD"/>
<path d="M9.96659 10.244H9.91659C9.42731 10.2388 8.94405 10.1355 8.4954 9.94016C8.04675 9.74486 7.64183 9.46157 7.30459 9.10702C6.79172 8.57877 6.44598 7.91101 6.31063 7.18729C6.17528 6.46356 6.25633 5.71599 6.54363 5.03808C6.83093 4.36018 7.31173 3.78203 7.92589 3.37595C8.54006 2.96987 9.26032 2.75389 9.99659 2.75502H10.0476C11.0323 2.77763 11.9684 3.18723 12.6532 3.89512C13.338 4.603 13.7164 5.55216 13.7064 6.53704C13.6964 7.52192 13.2989 8.46321 12.5998 9.15705C11.9008 9.85088 10.9565 10.2414 9.97159 10.244H9.96659ZM8.41259 7.28902C8.45559 7.28902 8.47359 7.30202 8.48859 7.34602C8.61567 7.7184 8.85679 8.04129 9.17773 8.2689C9.49868 8.4965 9.88315 8.61726 10.2766 8.61402C10.3336 8.61402 10.3926 8.61402 10.4596 8.60702C10.766 8.58921 11.0626 8.4924 11.3206 8.32602C11.4816 8.21695 11.6232 8.08176 11.7396 7.92602L11.6736 7.85502L11.3176 7.42402L11.2266 7.50002L11.2126 7.51202C11.1426 7.57102 11.0736 7.62802 11.0026 7.68502C10.8011 7.84743 10.5494 7.93474 10.2906 7.93202C10.2058 7.93169 10.1211 7.924 10.0376 7.90902C9.87561 7.8784 9.72336 7.80926 9.5937 7.70745C9.46404 7.60563 9.36077 7.47413 9.29259 7.32402C9.29259 7.32402 9.29259 7.32402 9.29259 7.31602C9.29274 7.31369 9.29274 7.31136 9.29259 7.30902H10.6476V6.79802H9.13959C9.11019 6.63574 9.10346 6.47016 9.11959 6.30602H10.6476V5.79502H9.24759C9.24778 5.79236 9.24778 5.78969 9.24759 5.78702C9.36169 5.53055 9.56095 5.32141 9.81159 5.19502C9.96478 5.12062 10.1333 5.08328 10.3036 5.08602C10.4383 5.0878 10.5723 5.10389 10.7036 5.13402C10.859 5.17934 11.0011 5.2617 11.1176 5.37402C11.1706 5.41802 11.2176 5.46602 11.2726 5.51502L11.3586 5.59602L11.5286 5.38302L11.7806 5.06702C11.4984 4.72052 11.0994 4.48901 10.6586 4.41602C10.6016 4.40602 10.5436 4.39902 10.4866 4.39302H10.4776L10.4076 4.38502H10.1476H10.1366L10.1036 4.39002C9.9218 4.40089 9.74352 4.44495 9.57759 4.52002C9.31014 4.63629 9.07081 4.80871 8.87584 5.02559C8.68087 5.24247 8.53482 5.49874 8.44759 5.77702C8.44539 5.78945 8.43839 5.80051 8.4281 5.80781C8.4178 5.81511 8.40505 5.81806 8.39259 5.81602H7.81359V6.28702H8.31959C8.31959 6.40802 8.32659 6.52702 8.32959 6.64802V6.66202V6.77902H7.80959V7.29002H8.40959L8.41259 7.28902Z" fill="#2787BD"/>
<path d="M4.54653 5.64802C4.40892 5.64802 4.2727 5.67526 4.14565 5.7281C4.01859 5.78094 3.90331 5.8583 3.80629 5.95588C3.70927 6.05346 3.63245 6.16934 3.58034 6.2967C3.52823 6.42406 3.50179 6.56046 3.50258 6.69807C3.50522 6.97231 3.61651 7.23425 3.81203 7.42658C4.00754 7.61891 4.2713 7.72593 4.54555 7.72407C4.68135 7.72447 4.81595 7.69788 4.94142 7.64594C5.0669 7.59401 5.18072 7.51771 5.27651 7.42146C5.3723 7.3252 5.44808 7.21087 5.49941 7.08515C5.55073 6.95943 5.57664 6.82483 5.57558 6.68903C5.57637 6.55311 5.55033 6.4183 5.49904 6.29243C5.44776 6.16655 5.37218 6.05206 5.27663 5.95539C5.18108 5.85872 5.06743 5.78181 4.94216 5.72907C4.81688 5.67633 4.68244 5.6488 4.54653 5.64802Z" fill="#2787BD"/>
<path d="M15.4506 5.64902C15.1728 5.6506 14.907 5.76227 14.7113 5.95944C14.5156 6.15662 14.406 6.42323 14.4065 6.70102C14.411 6.97519 14.5234 7.23658 14.7195 7.42831C14.9155 7.62005 15.1793 7.72668 15.4535 7.72507C15.5893 7.72521 15.7239 7.69839 15.8492 7.64621C15.9746 7.59403 16.0884 7.51743 16.184 7.42099C16.2796 7.32455 16.355 7.21014 16.4061 7.08432C16.4572 6.9585 16.4829 6.82387 16.4816 6.68808C16.4821 6.41374 16.3739 6.15027 16.1807 5.95554C15.9874 5.7608 15.7249 5.6506 15.4506 5.64902Z" fill="#2787BD"/>
</svg>
