<svg width="20" height="13" viewBox="0 0 20 13" fill="none" xmlns="http://www.w3.org/2000/svg">
<path d="M19.7547 2.20803C19.756 2.0323 19.7361 1.85707 19.6956 1.68606C19.6042 1.30178 19.3814 0.961529 19.0657 0.724146C18.75 0.486763 18.3611 0.367125 17.9666 0.386012C15.2706 0.386012 12.5746 0.386012 9.87857 0.386012C7.18257 0.386012 4.49367 0.386012 1.81167 0.386012C1.57111 0.371544 1.33019 0.408216 1.10477 0.493433C0.879336 0.578651 0.674405 0.710532 0.503569 0.880518C0.332733 1.0505 0.199773 1.25464 0.113432 1.47964C0.0270912 1.70464 -0.010675 1.94543 0.00259225 2.18606C0.00259225 5.06539 0.00259225 7.94436 0.00259225 10.823C-0.00835796 11.0617 0.0308227 11.3001 0.117582 11.5227C0.204342 11.7454 0.336806 11.9474 0.506376 12.1157C0.675947 12.2841 0.878942 12.415 1.1022 12.5001C1.32546 12.5853 1.56403 12.6227 1.80264 12.61H17.9577C18.198 12.6226 18.4382 12.5845 18.6627 12.4981C18.8873 12.4116 19.0912 12.2788 19.261 12.1083C19.4308 11.9378 19.5628 11.7335 19.6483 11.5086C19.7339 11.2837 19.7711 11.0433 19.7576 10.803C19.7583 7.93834 19.7573 5.07337 19.7547 2.20803ZM18.2757 9.24002C18.0011 9.18015 17.7161 9.1858 17.4441 9.25649C17.1721 9.32718 16.9206 9.46101 16.7099 9.647C16.4991 9.83298 16.3352 10.0659 16.2312 10.3271C16.1273 10.5882 16.0863 10.8701 16.1116 11.15H3.50064C3.43864 9.72605 2.73662 9.0171 1.48562 9.1221V3.88601C1.76032 3.92745 2.04096 3.90329 2.30447 3.81533C2.56799 3.72738 2.80688 3.57816 3.00162 3.38003C3.19623 3.18204 3.3414 2.94093 3.42532 2.67629C3.50925 2.41166 3.52959 2.13104 3.48465 1.85708H16.1676C16.0999 2.14659 16.1072 2.4486 16.1887 2.73452C16.2703 3.02044 16.4233 3.28074 16.6336 3.49099C16.844 3.70358 17.1056 3.85859 17.3931 3.94107C17.6806 4.02354 17.9845 4.03078 18.2757 3.96206V9.24002Z" fill="#2787BD"/>
<path d="M10.0426 2.75799C9.05331 2.74432 8.09887 3.12274 7.38777 3.8106C6.67668 4.49846 6.26683 5.43985 6.24764 6.42901C6.22862 7.42181 6.60443 8.38158 7.29256 9.09746C7.98069 9.81335 8.92478 10.2268 9.91756 10.247C10.4146 10.258 10.9088 10.17 11.3714 9.98797C11.834 9.80595 12.2558 9.53357 12.612 9.18682C12.9683 8.84007 13.2519 8.42585 13.4464 7.96831C13.6408 7.51078 13.7422 7.01916 13.7446 6.52203C13.7497 5.53291 13.3632 4.58197 12.6696 3.87676C11.976 3.17156 11.0316 2.76933 10.0426 2.75799ZM11.2716 7.60906C11.2219 7.77906 11.1314 7.93428 11.008 8.06133C10.8846 8.18839 10.732 8.28343 10.5636 8.33807C10.5194 8.3462 10.4773 8.36302 10.4397 8.38763C10.4021 8.41223 10.3697 8.44413 10.3446 8.48138C10.3194 8.51862 10.3021 8.56047 10.2933 8.60454C10.2845 8.64862 10.2846 8.69394 10.2935 8.73797C10.3115 9.06597 10.2936 9.07098 9.96956 9.07098C9.64556 9.07098 9.6266 9.07105 9.6346 8.72405C9.6346 8.53805 9.57163 8.46799 9.39363 8.43499C9.18729 8.39569 8.98593 8.33326 8.79354 8.24895C8.73454 8.22295 8.71657 8.09907 8.68257 8.02007C8.68257 8.01007 8.68263 7.99306 8.69063 7.97906C8.80263 7.47906 8.79654 7.49999 9.27754 7.63299C9.53326 7.69544 9.79657 7.72108 10.0595 7.70904C10.146 7.70807 10.2292 7.67479 10.2924 7.61578C10.3557 7.55676 10.3946 7.4763 10.4016 7.39007C10.412 7.30513 10.3942 7.21908 10.3508 7.14532C10.3074 7.07156 10.2409 7.01412 10.1616 6.98199C10.0206 6.90499 9.86764 6.85003 9.72164 6.78203C9.53483 6.70225 9.35362 6.60972 9.17952 6.50506C9.02329 6.40863 8.89561 6.27226 8.80965 6.11004C8.72369 5.94781 8.68256 5.76551 8.69051 5.58208C8.69846 5.39866 8.75527 5.22076 8.85494 5.06658C8.95461 4.9124 9.09354 4.78756 9.25752 4.70501C9.31086 4.67137 9.36836 4.64484 9.42854 4.62603C9.47018 4.62014 9.51021 4.6055 9.54585 4.58318C9.5815 4.56086 9.61197 4.5314 9.63545 4.49651C9.65893 4.46162 9.67483 4.42209 9.68209 4.38067C9.68934 4.33924 9.6878 4.29683 9.67757 4.25603C9.67057 4.16203 9.70857 3.98803 9.75057 3.98003C9.91601 3.95148 10.0851 3.95148 10.2506 3.98003C10.2846 3.98503 10.3226 4.12696 10.3156 4.20196C10.2936 4.43596 10.3976 4.53997 10.6226 4.54497H10.6436C11.1806 4.65397 11.2576 4.81496 11.0146 5.30596C10.9566 5.42296 10.8856 5.39107 10.7896 5.36907C10.5332 5.3051 10.273 5.25727 10.0106 5.226C9.92556 5.2106 9.83793 5.22833 9.76558 5.27557C9.69323 5.3228 9.64163 5.396 9.62154 5.48003C9.6033 5.56062 9.61592 5.64505 9.65682 5.71685C9.69771 5.78865 9.76399 5.84255 9.84261 5.86797C10.1236 6.01097 10.4196 6.12595 10.6976 6.27495C10.9358 6.39247 11.1243 6.59101 11.2294 6.83489C11.3346 7.07877 11.3496 7.35213 11.2716 7.60601V7.60906Z" fill="#2787BD"/>
<path d="M4.54653 5.64801C4.40892 5.64801 4.2727 5.67525 4.14565 5.72809C4.01859 5.78093 3.90331 5.85829 3.80629 5.95587C3.70927 6.05345 3.63245 6.16933 3.58034 6.29669C3.52823 6.42405 3.50179 6.56045 3.50258 6.69806C3.50522 6.9723 3.61651 7.23425 3.81203 7.42657C4.00754 7.6189 4.2713 7.72593 4.54555 7.72406C4.68135 7.72446 4.81595 7.69787 4.94142 7.64594C5.0669 7.594 5.18072 7.5177 5.27651 7.42145C5.3723 7.32519 5.44808 7.21087 5.49941 7.08514C5.55073 6.95942 5.57664 6.82482 5.57558 6.68903C5.57637 6.55311 5.55033 6.41829 5.49904 6.29242C5.44776 6.16654 5.37218 6.05205 5.27663 5.95538C5.18108 5.85872 5.06743 5.78181 4.94216 5.72906C4.81688 5.67632 4.68244 5.6488 4.54653 5.64801Z" fill="#2787BD"/>
<path d="M15.4506 5.64902C15.1728 5.6506 14.907 5.76227 14.7113 5.95944C14.5156 6.15662 14.406 6.42323 14.4065 6.70102C14.411 6.97519 14.5234 7.23658 14.7195 7.42831C14.9155 7.62005 15.1793 7.72668 15.4535 7.72507C15.5893 7.72521 15.7239 7.69839 15.8492 7.64621C15.9746 7.59403 16.0884 7.51743 16.184 7.42099C16.2796 7.32455 16.355 7.21014 16.4061 7.08432C16.4572 6.9585 16.4829 6.82387 16.4816 6.68808C16.4821 6.41374 16.3739 6.15027 16.1807 5.95554C15.9874 5.7608 15.7249 5.6506 15.4506 5.64902Z" fill="#2787BD"/>
</svg>
